<svg version="1.2" xmlns="http://www.w3.org/2000/svg" viewBox="0 0 111 145" width="111" height="145"><style>.a{fill:#c9020f}.b{fill:#28ace2}.c{fill:#fafafa}</style><path class="a" d="m75 106.5h-38.1c-1.6 0-2.8 1.1-2.8 2.4v1.6c0 1.3 1.2 2.3 2.8 2.3h38.1c1.5 0 2.8-1 2.8-2.3v-1.6c0-1.3-1.3-2.4-2.8-2.4z"/><path class="a" d="m75 116h-38.1c-1.6 0-2.8 1-2.8 2.3v1.6c0 1.3 1.2 2.4 2.8 2.4h38.1c1.5 0 2.8-1.1 2.8-2.4v-1.6c0-1.3-1.3-2.3-2.8-2.3z"/><path class="a" d="m75 125.4h-38.1c-1.6 0-2.8 1.1-2.8 2.4v1.5c0 1.3 1.2 2.4 2.8 2.4h38.1c1.5 0 2.8-1.1 2.8-2.4v-1.5c0-1.3-1.3-2.4-2.8-2.4z"/><path class="a" d="m41.7 134.8h28.5c0 4.8-7.6 7.9-14.3 7.9-6.6 0-14.2-3.1-14.2-7.9z"/><path class="b" d="m56.3 14.6v71.1c0 0 1.5 12.5 11.9 12.8 0 0 11.9 3 17.6-5.9 0 0 11.4-0.4 14.7-13 0 0 6.5-3.5 5.3-15 0 0 6.2-8.1 0-15.3 0 0 3.7-8.1-4-14.1 0 0 0.5-10.7-9.9-14 0 0-1.5-7.5-14.8-8.2 0 0-2.1-7.1-10.5-6.8-8.4 0.3-9.4 6.6-10.3 8.4z"/><path class="c" d="m62.9 19.5c0 0 4.2-8.3 12-3.1 0 0 5.2 5.7 0 10.7 0 0-0.9 1.3-4.8 1.9 0 0 0.2-3.2-1.5-2.5 0 0-0.7 0.2-0.3 1.1 0 0 1.3 1.9-0.2 4.6 0 0-0.4 1.8 1.1 0.9 0 0 1-1.7 0.9-2 0 0 3.5-0.3 6.3-2.6 0 0 3.2-2.1 2.8-8.1 0 0 6.5-0.8 9.8 6.2 0 0 7.3 1.4 7 9.7 0 0-0.4 9.1-8.3 10.8 0 0-2.9 0.4-4.8 0 0 0 0.7-3.8 0.6-5.1 0 0 2-1.8 2-2.3 0 0-0.1-1.1-1.5-0.3 0 0-0.3 1.9-4.5 0.8 0 0-2 0 0 1.3 0 0 1.1 0.3 1.7 0.3 0 0 1.8 8.3-6.3 8.6 0 0-9-3.3-12-15.2z"/><path class="c" d="m86.6 65.5c0 0 5.2 3.8 11 0.5 0 0 8.2-3.4 1.9-12.9 0 0 2.8-6.2-1.5-9.6 0 0-3.1 12.3-16.2 10.1 0 0-1.7 2-3.3 2.6l3.9 0.4c0 0 2.1 1.7-0.6 2.5 0 0-12-0.3-18.9-12.3v35.8c0 0 2.1 9.2 10.7 9.1 0 0 10.4-0.1 12-9.1 0 0 1.6-6.7-3.4-10.4 0 0 0.1-2.6 2.1-1.4 0 0 6.3 5.8 2.6 15 0 0 5.8-0.2 9.1-9.4 0 0 4.7-3.7 4.2-9.3 0 0-5.1 3-9.3 2.2 0 0-3.9-1-4.8-2.2 0 0-5.2 5.3-12.3 1.4 0 0-1.5 1.8-2.8 0.8 0 0 0.9-0.7 2.6-2.3l-0.1-3c0 0 1.5-1.1 1.4 0.6l0.1 2.3c0 0 5.9 3.3 10.5-2.3"/><path class="a" d="m54.8 14.6v71.1c0 0-1.5 12.5-12 12.8 0 0-11.8 3-17.5-5.9 0 0-11.4-0.4-14.7-13 0 0-6.5-3.5-5.3-15 0 0-6.3-8.1 0-15.3 0 0-3.7-8.1 3.9-14.1 0 0-0.4-10.7 9.9-14 0 0 1.5-7.5 14.9-8.2 0 0 2.1-7.1 10.5-6.8 8.4 0.3 9.4 6.6 10.3 8.4z"/></svg>