<svg version="1.2" xmlns="http://www.w3.org/2000/svg" viewBox="0 0 954 185" width="954" height="185"><style>.a{fill:none;stroke:#28ace2;stroke-miterlimit:100;stroke-width:8}.b{fill:#c9020f}.c{display:none;fill:#fafafa}.d{fill:#28ace2}.e{fill:#fafafa}</style><path fill-rule="evenodd" class="a" d="m14 169v-157.1h32.3v157.1z"/><path fill-rule="evenodd" class="a" d="m61.4 169v-157.1h240.6v32.1h-108.5q4.5 6.3 7.7 13.2 3.4 6.9 5.1 14.3h95.7v32.5h-94.7q-1.4 9.2-5.1 17.4-3.6 8-8.7 15.3h114.5v32.3zm68.5-125h-36.2v92.7h36.2q9.5 0 17.9-3.6 8.5-3.7 14.8-9.9 6.2-6.3 9.9-14.7 3.7-8.5 3.7-18.2 0-9.4-3.7-17.8-3.7-8.5-9.9-14.8-6.3-6.3-14.8-10-8.4-3.7-17.9-3.7z"/><path fill-rule="evenodd" class="a" d="m358.3 169h-34.4q0.5-1.3 3.2-8.4 2.8-7.2 6.8-18.1 4.2-11 9.3-24.6 5.2-13.7 10.6-27.9 5.3-14.1 10.5-27.6 5.3-13.7 9.3-24.5 4.2-10.9 6.8-17.8 2.7-7.1 3-8.2h34.6q-0.8 2.1-2.6 6.6-1.6 4.5-3.8 10.4-2.3 6-5 12.9-2.6 6.7-5.2 13.5-3 8-6.4 16.7-3.2 8.7-6.8 18.3h55.9l30.2 78.7h-34.6l-17.8-46.3h-45.9z"/><path class="b" d="m432 38.9l10.3-28.2h123.5v28.2h-53.5v109.3h-28.4v-109.3z"/><path fill-rule="evenodd" class="b" d="m608.3 95.9v52.3h-28.3v-137.5h73.3q8.9 0 16.7 3.4 7.7 3.4 13.5 9.2 5.9 5.7 9.1 13.5 3.4 7.7 3.4 16.4 0 7.5-2.5 14.2-2.4 6.8-6.8 12.3-4.2 5.5-10.3 9.4-5.9 3.8-12.8 5.5c0.4 1 42.4 53.9 42.8 54.3-0.2-0.1-13.6 0-42.1 0l-29.8-53zm45-57h-45v28.7h45q3 0 5.7-1.1 2.6-1.2 4.5-3.1 1.9-2 3.1-4.5 1.1-2.7 1.1-5.7 0-2.9-1.1-5.5-1.2-2.6-3.1-4.6-1.9-2-4.5-3.1-2.7-1.1-5.7-1.1z"/><path class="b" d="m814.6 10.7h28.2l75.2 92.4v-92.4h28.3v137.5h-28l-75.5-92.7v92.7h-28.2z"/><path class="b" d="m774 111.5h-38.1c-1.6 0-2.8 1.1-2.8 2.4v1.6c0 1.3 1.2 2.3 2.8 2.3h38.1c1.5 0 2.8-1 2.8-2.3v-1.6c0-1.3-1.3-2.4-2.8-2.4z"/><path class="b" d="m774 121h-38.1c-1.6 0-2.8 1-2.8 2.3v1.6c0 1.3 1.2 2.4 2.8 2.4h38.1c1.5 0 2.8-1.1 2.8-2.4v-1.6c0-1.3-1.3-2.3-2.8-2.3z"/><path class="b" d="m774 130.4h-38.1c-1.6 0-2.8 1.1-2.8 2.4v1.5c0 1.3 1.2 2.4 2.8 2.4h38.1c1.5 0 2.8-1.1 2.8-2.4v-1.5c0-1.3-1.3-2.4-2.8-2.4z"/><path class="b" d="m740.7 139.8h28.5c0 4.8-7.6 7.9-14.3 7.9-6.6 0-14.2-3.1-14.2-7.9z"/><path class="b" d="m753.8 19.6v71.1c0 0-1.5 12.5-12 12.8 0 0-11.8 3-17.5-5.9 0 0-11.4-0.4-14.7-13 0 0-6.5-3.5-5.3-15 0 0-6.3-8.1 0-15.3 0 0-3.7-8.1 3.9-14.1 0 0-0.4-10.7 9.9-14 0 0 1.5-7.5 14.9-8.2 0 0 2.1-7.1 10.5-6.8 8.4 0.3 9.4 6.6 10.3 8.4z"/><path class="c" d="m747.1 23.5c0 0-4.2-8.3-12-3.1 0 0-5.2 5.7 0 10.7 0 0 0.9 1.3 4.8 1.9 0 0-0.2-3.2 1.5-2.5 0 0 0.7 0.2 0.3 1.1 0 0-1.3 1.9 0.2 4.6 0 0 0.4 1.8-1.1 0.9 0 0-1-1.7-0.9-2 0 0-3.5-0.3-6.3-2.6 0 0-3.2-2.1-2.8-8.1 0 0-6.5-0.8-9.8 6.2 0 0-7.3 1.4-7 9.7 0 0 0.4 9.1 8.3 10.8 0 0 2.9 0.4 4.8 0 0 0-0.7-3.8-0.6-5.1 0 0-2-1.8-2-2.3 0 0 0.1-1.1 1.5-0.3 0 0 0.3 1.9 4.5 0.8 0 0 2 0 0 1.3 0 0-1.1 0.3-1.7 0.3 0 0-1.8 8.3 6.3 8.6 0 0 9-3.3 12-15.2z"/><path class="c" d="m723.4 69.5c0 0-5.2 3.8-11 0.5 0 0-8.2-3.4-1.9-12.9 0 0-2.8-6.2 1.5-9.6 0 0 3.1 12.3 16.2 10.1 0 0 1.7 2 3.3 2.6l-3.9 0.4c0 0-2.1 1.7 0.6 2.5 0 0 12-0.3 18.9-12.3v35.8c0 0-2.1 9.2-10.7 9.1 0 0-10.4-0.1-12-9.1 0 0-1.6-6.7 3.4-10.4 0 0-0.1-2.6-2.1-1.4 0 0-6.3 5.8-2.6 15 0 0-5.8-0.2-9.1-9.4 0 0-4.7-3.7-4.2-9.3 0 0 5.1 3 9.3 2.2 0 0 3.9-1 4.8-2.2 0 0 5.2 5.3 12.3 1.4 0 0 1.5 1.8 2.8 0.8 0 0-0.9-0.7-2.6-2.3l0.1-3c0 0-1.5-1.1-1.4 0.6l-0.1 2.3c0 0-5.9 3.3-10.5-2.3"/><path class="d" d="m755.3 19.6v71.1c0 0 1.5 12.5 11.9 12.8 0 0 11.9 3 17.6-5.9 0 0 11.4-0.4 14.7-13 0 0 6.5-3.5 5.3-15 0 0 6.2-8.1 0-15.3 0 0 3.7-8.1-4-14.1 0 0 0.5-10.7-9.9-14 0 0-1.5-7.5-14.8-8.2 0 0-2.1-7.1-10.5-6.8-8.4 0.3-9.4 6.6-10.3 8.4z"/><path class="e" d="m761.9 24.5c0 0 4.2-8.3 12-3.1 0 0 5.2 5.7 0 10.7 0 0-0.9 1.3-4.8 1.9 0 0 0.2-3.2-1.5-2.5 0 0-0.7 0.2-0.3 1.1 0 0 1.3 1.9-0.2 4.6 0 0-0.4 1.8 1.1 0.9 0 0 1-1.7 0.9-2 0 0 3.5-0.3 6.3-2.6 0 0 3.2-2.1 2.8-8.1 0 0 6.5-0.8 9.8 6.2 0 0 7.3 1.4 7 9.7 0 0-0.4 9.1-8.3 10.8 0 0-2.9 0.4-4.8 0 0 0 0.7-3.8 0.6-5.1 0 0 2-1.8 2-2.3 0 0-0.1-1.1-1.5-0.3 0 0-0.3 1.9-4.5 0.8 0 0-2 0 0 1.3 0 0 1.1 0.3 1.7 0.3 0 0 1.8 8.3-6.3 8.6 0 0-9-3.3-12-15.2z"/><path class="e" d="m785.6 70.5c0 0 5.2 3.8 11 0.5 0 0 8.2-3.4 1.9-12.9 0 0 2.8-6.2-1.5-9.6 0 0-3.1 12.3-16.2 10.1 0 0-1.7 2-3.3 2.6l3.9 0.4c0 0 2.1 1.7-0.6 2.5 0 0-12-0.3-18.9-12.3v35.8c0 0 2.1 9.2 10.7 9.1 0 0 10.4-0.1 12-9.1 0 0 1.6-6.7-3.4-10.4 0 0 0.1-2.6 2.1-1.4 0 0 6.3 5.8 2.6 15 0 0 5.8-0.2 9.1-9.4 0 0 4.7-3.7 4.2-9.3 0 0-5.1 3-9.3 2.2 0 0-3.9-1-4.8-2.2 0 0-5.2 5.3-12.3 1.4 0 0-1.5 1.8-2.8 0.8 0 0 0.9-0.7 2.6-2.3l-0.1-3c0 0 1.5-1.1 1.4 0.6l0.1 2.3c0 0 5.9 3.3 10.5-2.3"/><path fill-rule="evenodd" d="m483.5 155.1h7.6q3.6 0 5.6 1.7 2 1.7 2 4.7 0 3.2-2 5-2 1.7-5.6 1.7h-4.4v5.8h-3.2zm3.2 13.1v-2.7h-1.4l1.4 1.4-1.4 1.3zm4.2-2.7q2.3 0 3.5-0.9 1.2-1 1.2-3 0-1.9-1.2-2.8-1.2-1-3.5-1h-4.2v7.7zm-4.3-7.7v-1.4l-1.4 1.4zm23.7-2.9q2.1 0 3.9 0.7 1.9 0.8 3.3 2.1 1.3 1.3 2.1 3.1 0.8 1.7 0.8 3.7 0 2-0.8 3.8-0.8 1.8-2.1 3.1-1.4 1.3-3.3 2.1-1.8 0.7-3.9 0.7-2.1 0-4-0.7-1.8-0.8-3.2-2.1-1.4-1.3-2.2-3.1-0.7-1.8-0.7-3.8 0-2 0.7-3.8 0.8-1.7 2.2-3 1.4-1.3 3.2-2.1 1.9-0.7 4-0.7zm0 2.7q-1.4 0-2.7 0.6-1.2 0.5-2.1 1.4-1 1-1.5 2.2-0.6 1.3-0.6 2.7 0 1.5 0.6 2.8 0.5 1.2 1.5 2.2 0.9 0.9 2.2 1.5 1.2 0.5 2.6 0.5 1.4 0 2.6-0.5 1.3-0.6 2.2-1.5 0.9-1 1.5-2.2 0.5-1.3 0.5-2.8 0-1.4-0.5-2.7-0.6-1.2-1.5-2.2-0.9-0.9-2.2-1.4-1.2-0.6-2.6-0.6zm17.3 16.4l-6.5-18.9h3.5l4.7 15.6 4.7-15.6h3.2l4.7 15.6 4.7-15.6h3.4l-6.5 18.9h-3.3l-4.6-15-4.7 15zm1.7-3.3l-0.4 1.3h0.8zm12.7 0l-0.5 1.4h0.9zm-6.4-11.7l0.4-1.3h-0.8zm17 15v-18.9h13.6v2.7h-10.4v5.3h9.3v2.7h-9.3v5.4h10.7v2.8zm17.9-18.9h7.8q3.6 0 5.6 1.7 2.1 1.6 2.1 4.7 0 3.2-2.1 5-0.8 0.7-1.9 1.1l4.3 6.4h-3.7l-3.5-5.8q-0.4 0-0.8 0h-4.6v5.8h-3.2zm3.2 10.4h4.6q2.2 0 3.4-1 1.2-0.9 1.2-2.9 0-1.9-1.2-2.9-1.2-0.9-3.4-0.9h-4.6zm16.5 8.5v-18.9h13.7v2.7h-10.4v5.3h9.3v2.7h-9.3v5.4h10.7v2.8zm17.9-18.9h7.8q2.2 0 4 0.7 1.8 0.7 3.1 1.9 1.3 1.3 2 3 0.8 1.8 0.8 3.8 0 2.1-0.8 3.8-0.7 1.7-2 3-1.4 1.3-3.2 2-1.8 0.7-4 0.7h-7.7zm3.2 16.1h4.7q1.4 0 2.6-0.4 1.2-0.5 2-1.4 0.9-0.9 1.4-2.2 0.5-1.2 0.5-2.7 0-1.4-0.5-2.7-0.5-1.2-1.4-2.1-0.9-0.9-2.1-1.4-1.2-0.5-2.6-0.5h-4.6zm25.3-16.2h8.3q2 0 3.4 0.6 1.4 0.6 2.2 1.6 0.8 1.1 0.8 2.5 0 1.6-0.9 2.8-0.9 1.1-2.5 1.5 1.9 0.3 3 1.6 1.1 1.2 1.1 3.1 0 1.7-0.8 2.8-0.9 1.2-2.4 1.8-1.6 0.6-3.7 0.6h-8.5zm3.2 7.9h4.9q1.5 0 2.4-0.7 0.9-0.7 0.9-1.9 0-1.3-0.9-1.9-0.9-0.7-2.4-0.7h-4.9zm0 8.4h4.9q1.9 0 3-0.7 1-0.8 1-2.2 0-1.3-1-2-1.1-0.8-3-0.7h-4.9zm13.6-16.2h3.2l5.5 9.3 5.3-9.3h3.3l-7 12.4v6.5h-3.2v-6.3zm27.2 18.9v-18.9h3.1l10.3 13.8v-13.8h3.1v18.9h-3.1l-10.2-13.9v-1.4l-0.8 0.3 0.8 1.2v13.8zm13.4-5.1v1.4l0.8-0.3zm8.2 5.1v-18.9h13.6v2.7h-10.4v5.4h9.3v2.7h-9.3v5.4h10.7v2.7zm15.7-16.2v-2.7h15.3v2.7h-6.1v16.2h-3.2v-16.2zm22.1 16.2l-6.5-18.9h3.5l4.7 15.6 4.7-15.6h3.2l4.7 15.6 4.7-15.6h3.3l-6.4 18.9h-3.4l-4.6-15-4.7 15zm1.8-3.3l-0.4 1.3h0.8zm12.6 0l-0.4 1.4h0.8zm-6.3-11.7l0.4-1.3h-0.8zm16.9 15v-18.9h13.7v2.7h-10.4v5.3h9.3v2.7h-9.3v5.5h10.7v2.7zm17.9-18.9h8.3q2 0 3.4 0.5 1.4 0.6 2.2 1.7 0.8 1 0.8 2.5 0 1.6-0.9 2.7-0.9 1.2-2.5 1.5 1.9 0.3 3 1.6 1.1 1.3 1.1 3.2 0 1.6-0.8 2.8-0.9 1.1-2.4 1.8-1.6 0.6-3.7 0.6h-8.5zm3.2 7.8h4.9q1.5 0 2.4-0.6 0.9-0.7 0.9-2 0-1.2-0.9-1.8-0.9-0.7-2.4-0.7h-4.9zm0 8.3h4.9q1.9 0 3-0.7 1-0.7 1-2.1 0-1.3-1-2-1.1-0.8-3-0.8h-4.9zm35.6-6.4l2.1 1.4q-0.9 2.1-2.1 3.7 1.5 1.4 3.2 3l-1.6 1.5q-1.6-1.5-3-2.8-1 0.9-2.1 1.5-1.7 1-3.6 1-1.7 0-3.1-0.7-1.4-0.7-2.2-1.9-0.7-1.2-0.7-2.7 0-1.5 0.6-2.5 0.7-1 1.8-1.7 0.8-0.6 1.7-1-0.9-1.3-1.4-2.3-0.5-1.1-0.5-2.1 0-1.3 0.7-2.2 0.6-1 1.7-1.5 1.1-0.6 2.6-0.6 1.5 0 2.5 0.5 1.1 0.5 1.7 1.4 0.6 0.9 0.6 2.1 0 1.3-0.6 2.2-0.7 1-1.8 1.7-1.1 0.7-2.2 1.2 0 0.1 0.1 0.2 1.5 1.6 3.6 3.8 0.2 0.1 0.3 0.2 1-1.5 1.7-3.4zm0 5.1q-0.9-0.9-1.7-1.7-0.1 0.2-0.2 0.3-0.5 0.8-1.2 1.5 0.8 0.7 1.7 1.6 0.5-0.6 1-1.2 0.2-0.2 0.4-0.5zm-9-6.3q0.6 0.7 1.2 1.5 1-0.5 2-1 0 0 0.1-0.1-0.7-0.8-1.3-1.5-0.6 0.4-1.3 0.7-0.4 0.2-0.7 0.4zm3-1.6q1.1-0.6 1.7-1.3 0.8-0.8 0.8-1.8 0-1-0.7-1.5-0.6-0.6-1.7-0.6-1.1 0-1.8 0.7-0.7 0.6-0.7 1.6 0 1.1 0.7 2.3 0.3 0.5 0.7 1.1 0.5-0.2 1-0.5zm-0.5 4.5q-0.7-0.7-1.3-1.4-0.1 0.1-0.3 0.2-1.1 0.6-1.8 1.4-0.7 0.8-0.7 1.9 0 1 0.5 1.7 0.5 0.7 1.3 1.1 0.8 0.5 1.8 0.5 1.4 0 2.7-0.9 0.6-0.4 1.2-1-2-2-3.4-3.5zm17.5-8.7v-2.7h15.3v2.7h-6.1v16.2h-3.2v-16.2zm15.6-2.7h3.2l5.5 9.3 5.3-9.3h3.3l-7 12.4v6.5h-3.2v-6.4zm19.9 0h7.7q3.7 0 5.7 1.7 2 1.7 2 4.7 0 3.2-2 5-0.9 0.7-2 1.2l4.3 6.3h-3.6l-3.6-5.8q-0.4 0.1-0.8 0.1h-4.5v5.7h-3.2zm3.2 10.4h4.5q2.2 0 3.4-0.9 1.2-1 1.2-3 0-1.9-1.2-2.8-1.2-1-3.4-1h-4.5zm25-10.6q2.1 0 4 0.8 1.8 0.7 3.2 2 1.4 1.3 2.1 3.1 0.8 1.7 0.8 3.7 0 2.1-0.8 3.8-0.7 1.8-2.1 3.1-1.4 1.3-3.2 2.1-1.9 0.7-4 0.7-2.1 0-4-0.7-1.8-0.8-3.2-2.1-1.4-1.3-2.1-3.1-0.8-1.7-0.8-3.8 0-2 0.8-3.7 0.7-1.8 2.1-3.1 1.4-1.3 3.2-2 1.9-0.8 4-0.8zm0 2.7q-1.4 0-2.6 0.6-1.3 0.5-2.2 1.4-1 1-1.5 2.2-0.5 1.3-0.5 2.7 0 1.5 0.5 2.8 0.6 1.2 1.5 2.2 1 0.9 2.2 1.5 1.2 0.5 2.6 0.5 1.4 0 2.7-0.5 1.2-0.6 2.1-1.5 1-1 1.5-2.2 0.5-1.3 0.5-2.8 0-1.4-0.5-2.7-0.5-1.2-1.5-2.2-0.9-0.9-2.1-1.4-1.3-0.6-2.7-0.6zm13.6 16.4v-18.9h3.1l10.2 13.9v-13.9h3.2v18.9h-3.2l-10.1-13.8v13.8zm13.4-5v1.4l0.8-0.3zm-10.2-8.8v-1.4l-0.8 0.3zm18.3 13.8v-18.9h13.7v2.7h-10.4v5.3h9.3v2.7h-9.3v5.4h10.7v2.8z"/></svg>