<svg version="1.2" xmlns="http://www.w3.org/2000/svg" viewBox="0 0 1041 179" width="1041" height="179"><style>.a{fill:none;stroke:#28ace2;stroke-miterlimit:100;stroke-width:8}.b{fill:#c9020f}.c{fill:#28ace2}.d{fill:#fafafa}</style><path class="a" d="m9 167v-157.1h32.3v157.1z"/><path fill-rule="evenodd" class="a" d="m56.4 167v-157.1h240.6v32.1h-108.5q4.5 6.3 7.7 13.2 3.4 6.9 5.1 14.3h95.7v32.5h-94.7q-1.4 9.2-5.1 17.4-3.6 8-8.7 15.3h114.5v32.3zm68.5-125h-36.2v92.7h36.2q9.5 0 17.9-3.6 8.5-3.7 14.8-9.9 6.2-6.3 9.9-14.7 3.7-8.5 3.7-18.2 0-9.4-3.7-17.8-3.7-8.5-9.9-14.8-6.3-6.3-14.8-10-8.4-3.7-17.9-3.7z"/><path class="a" d="m353.3 167h-34.4q0.5-1.3 3.2-8.4 2.8-7.2 6.8-18.1 4.2-11 9.3-24.6 5.2-13.7 10.6-27.9 5.3-14.1 10.5-27.6 5.3-13.7 9.3-24.5 4.2-10.9 6.8-17.8 2.7-7.1 3-8.2h34.6q-0.8 2.1-2.6 6.6-1.6 4.5-3.8 10.4-2.3 6-5 12.9-2.6 6.7-5.2 13.5-3 8-6.4 16.7-3.2 8.7-6.8 18.3h55.9l30.2 78.7h-34.6l-17.8-46.3h-45.9z"/><path class="b" d="m420.5 40l12.3-33.7h147.8v33.7h-64v130.8h-34v-130.8z"/><path fill-rule="evenodd" class="b" d="m631.4 108.2v62.6h-33.8v-164.5h87.7q10.6 0 19.8 4.1 9.3 4 16.2 10.9 7.1 6.9 10.9 16.2 4.1 9.2 4.1 19.7 0 8.9-3.1 17-2.8 8-8 14.6-5.1 6.6-12.3 11.3-7.1 4.5-15.3 6.5c0.4 1.2 50.6 64.5 51.2 65-0.3-0.1-16.3 0-50.4 0 0 0-35.7-63.4-35.7-63.4zm117.4 63.4q0 0 0 0 0 0 0 0zm-63.5-131.6h-53.9v34.3h53.9q3.5 0 6.7-1.3 3.2-1.4 5.4-3.7 2.4-2.4 3.7-5.4 1.3-3.2 1.3-6.7 0-3.6-1.3-6.6-1.3-3.2-3.7-5.6-2.2-2.3-5.4-3.7-3.2-1.3-6.7-1.3z"/><path class="b" d="m878.1 6.3h33.8l89.9 110.4v-110.4h33.8v164.5h-33.5l-90.2-111v111h-33.8z"/><path class="b" d="m829.5 126.9h-45.5c-1.9 0-3.4 1.2-3.4 2.8v1.9c0 1.5 1.5 2.8 3.4 2.8h45.5c1.9 0 3.4-1.3 3.4-2.8v-1.9c0-1.6-1.5-2.8-3.4-2.8z"/><path class="b" d="m829.5 138.2h-45.5c-1.9 0-3.4 1.2-3.4 2.8v1.9c0 1.5 1.5 2.8 3.4 2.8h45.5c1.9 0 3.4-1.3 3.4-2.8v-1.9c0-1.6-1.5-2.8-3.4-2.8z"/><path class="b" d="m829.5 149.4h-45.5c-1.9 0-3.4 1.3-3.4 2.9v1.9c0 1.5 1.5 2.8 3.4 2.8h45.5c1.9 0 3.4-1.3 3.4-2.8v-1.9c0-1.6-1.5-2.9-3.4-2.9z"/><path class="b" d="m789.7 160.7h34.1c0 5.7-9.1 9.4-17 9.4-8 0-17.1-3.7-17.1-9.4z"/><path class="c" d="m807.1 17v85c0 0 1.8 14.9 14.4 15.2 0 0 14.2 3.6 21-7 0 0 13.6-0.5 17.6-15.6 0 0 7.7-4.2 6.3-17.9 0 0 7.4-9.7 0-18.3 0 0 4.4-9.7-4.7-16.9 0 0 0.5-12.7-11.9-16.6 0 0-1.8-9-17.7-9.9 0 0-2.5-8.4-12.6-8.1-10 0.4-11.3 7.9-12.4 10.1z"/><path class="d" d="m815.2 22.8c0 0 4.9-9.9 14.2-3.7 0 0 6.3 6.8 0 12.8 0 0-1.1 1.5-5.7 2.3 0 0 0.2-3.9-1.8-3 0 0-0.8 0.3-0.3 1.3 0 0 1.5 2.2-0.3 5.5 0 0-0.5 2.2 1.3 1 0 0 1.3-1.9 1.1-2.4 0 0 4.2-0.3 7.5-3.1 0 0 3.8-2.5 3.4-9.6 0 0 7.8-1 11.7 7.4 0 0 8.7 1.6 8.4 11.5 0 0-0.4 11-9.9 13.1 0 0-3.6 0.4-5.8 0 0 0 0.9-4.6 0.8-6.3 0 0 2.3-2 2.3-2.6 0 0-0.1-1.3-1.7-0.5 0 0-0.4 2.4-5.5 1.1 0 0-2.3 0 0 1.5 0 0 1.3 0.4 2.1 0.4 0 0 2.2 9.9-7.6 10.2 0 0-10.8-3.8-14.2-18.2z"/><path class="d" d="m843.4 77.8c0 0 6.3 4.6 13.2 0.6 0 0 9.8-4 2.2-15.4 0 0 3.4-7.4-1.7-11.5 0 0-3.7 14.8-19.4 12.1 0 0-2.1 2.4-4 3.1l4.7 0.4c0 0 2.6 2.1-0.7 3 0 0-14.3-0.3-22.5-14.6v42.7c0 0 2.4 11.1 12.7 10.9 0 0 12.5-0.1 14.4-10.9 0 0 1.9-8-4.2-12.4 0 0 0.2-3.1 2.6-1.6 0 0 7.5 6.9 3.1 17.8 0 0 6.9-0.1 10.9-11.2 0 0 5.6-4.4 5-11.1 0 0-6 3.6-11.1 2.6 0 0-4.7-1.1-5.7-2.6 0 0-6.2 6.4-14.8 1.6 0 0-1.8 2.3-3.3 1 0 0 1.1-0.8 3.1-2.7l-0.1-3.6c0 0 1.8-1.3 1.6 0.7l0.2 2.7c0 0 7.1 4 12.5-2.7"/><path class="b" d="m805.4 17v85c0 0-1.8 14.9-14.3 15.2 0 0-14.2 3.6-21-7 0 0-13.6-0.5-17.6-15.6 0 0-7.7-4.2-6.3-17.9 0 0-7.5-9.7 0-18.3 0 0-4.4-9.7 4.7-16.9 0 0-0.5-12.7 11.8-16.6 0 0 1.8-9 17.8-9.9 0 0 2.5-8.4 12.6-8.1 10 0.4 11.2 7.9 12.3 10.1z"/></svg>