<svg version="1.2" xmlns="http://www.w3.org/2000/svg" viewBox="0 0 300 84" width="300" height="84"><style>.a{fill:#e30914}</style><path class="a" d="m2.2 1.4h17.2v12.2h-17.2zm19.5 0h14.9v65.7h-14.9zm17.3 0h17.3v12.2h-17.3z"/><path fill-rule="evenodd" class="a" d="m78.8 65.8l16.5-49.1h-15.3l-7.3 27.4zm-32.1-49.1l16.3 45.6c0.2 0.9 0.4 1.8 0.4 2.6 0 1.6-0.7 4-2.3 5.2-1.3 0.9-3.2 1-5.1 1h-4.6v11.4h5.7c14.1-0.2 15.9-1.8 20.3-12.5l-15-53.3zm70.9 15.7c1.6-2 3.7-3.7 9.5-3.7 1.5 0 2.1 0.1 3 0.3v-13.1c-0.7-0.1-1.4-0.2-2.5-0.2-6.9 0-9.3 3.2-10 4.1zm-17.1 34.8h14.6v-50.3h-14.6zm60 1.5c16.8-1.3 24.8-14 24.8-27.3 0-11.3-6.2-25.2-24.8-26.2v11.5c6.4 0.7 10.1 5.7 10.1 14.7 0 13-7 14.8-10.1 15.5zm-2.5-11.8c-2.9-0.4-10.4-1.8-10.4-15 0-2.9 0-13.8 10.4-15.2v-11.5c-17 1.3-25.1 13.1-25.1 26.8 0 5.3 1.6 25.5 25.1 26.7zm52.3-25.2c0.8-1.1 2.8-3.5 6.9-3.5 7 0 7.4 6.3 7.4 8.7v30.3h14.6v-31c-0.1-5.2-0.2-12.3-6.8-16.9-2.7-2-6.3-3.3-10.6-3.3-5.3 0-8.3 1.9-11.5 4.2zm-16.9 35.5h14.5v-50.3h-14.5zm89.4-15.7c-0.6 1.3-2.8 5.5-9.3 5.5-9 0-11.6-8.5-11.6-15.6 0-11.5 6-14.8 11.3-14.8 3 0 5.9 1.3 7.6 3.5 0.6 1 1.5 2.6 2 5.3h-17.9c-0.4 1.9-0.5 3.6-0.5 5.6 0.1 2.2 0.2 3.5 0.5 5.2h33c0-8-1.4-16.1-5.9-22-3.6-4.9-9.8-8.9-18.7-8.9-15.4 0-25.9 11.3-25.9 26.9 0 14.3 8.6 26.4 25.8 26.4 7.5 0 14.9-2.6 19.7-8.3 2.7-3.2 3.8-6.1 4.4-7.8z"/></svg>