<?xml version="1.0" standalone="no"?>
<!DOCTYPE svg PUBLIC "-//W3C//DTD SVG 1.1//EN" "http://www.w3.org/Graphics/SVG/1.1/DTD/svg11.dtd" >
<svg xmlns="http://www.w3.org/2000/svg">
<metadata>Generated by IcoMoon</metadata>
<defs>
<font id="icomoon" horiz-adv-x="1024">
<font-face units-per-em="1024" ascent="960" descent="-64" />
<missing-glyph horiz-adv-x="1024" />
<glyph unicode="&#x20;" horiz-adv-x="512" d="" />
<glyph unicode="&#xe900;" glyph-name="zoom_out_map" d="M128 64v256h85.333v-110.933l132.267 132.267 59.733-59.733-132.267-132.267h110.933v-85.333h-256zM640 64v85.333h110.933l-132.267 132.267 59.733 59.733 132.267-132.267v110.933h85.333v-256h-256zM345.6 554.667l-132.267 132.267v-110.933h-85.333v256h256v-85.333h-110.933l132.267-132.267-59.733-59.733zM678.4 554.667l-59.733 59.733 132.267 132.267h-110.933v85.333h256v-256h-85.333v110.933l-132.267-132.267z" />
<glyph unicode="&#xe901;" glyph-name="zoom_out" d="M836.267 64l-268.8 268.8q-32-25.6-73.6-40.533t-88.533-14.933q-116.267 0-196.8 80.533t-80.533 196.8 80.533 196.8 196.8 80.533 196.8-80.533 80.533-196.8q0-46.933-14.933-88.533t-40.533-73.6l268.8-268.8-59.733-59.733zM405.333 362.667q80 0 136 56t56 136-56 136-136 56-136-56-56-136 56-136 136-56zM298.667 512v85.333h213.333v-85.333h-213.333z" />
<glyph unicode="&#xe902;" glyph-name="zoom_in_map" d="M166.4 42.667l-59.733 59.733 132.267 132.267h-110.933v85.333h256v-256h-85.333v110.933l-132.267-132.267zM857.6 42.667l-132.267 132.267v-110.933h-85.333v256h256v-85.333h-110.933l132.267-132.267-59.733-59.733zM128 576v85.333h110.933l-132.267 132.267 59.733 59.733 132.267-132.267v110.933h85.333v-256h-256zM640 576v256h85.333v-110.933l132.267 132.267 59.733-59.733-132.267-132.267h110.933v-85.333h-256z" />
<glyph unicode="&#xe903;" glyph-name="zoom_in" d="M836.267 64l-268.8 268.8q-32-25.6-73.6-40.533t-88.533-14.933q-116.267 0-196.8 80.533t-80.533 196.8 80.533 196.8 196.8 80.533 196.8-80.533 80.533-196.8q0-46.933-14.933-88.533t-40.533-73.6l268.8-268.8-59.733-59.733zM405.333 362.667q80 0 136 56t56 136-56 136-136 56-136-56-56-136 56-136 136-56zM362.667 426.667v85.333h-85.333v85.333h85.333v85.333h85.333v-85.333h85.333v-85.333h-85.333v-85.333h-85.333z" />
<glyph unicode="&#xe904;" glyph-name="zone_person_urgent" d="M85.333 704v128q0 35.2 25.067 60.267t60.267 25.067h128v-85.333h-128v-128h-85.333zM298.667 64h-128q-35.2 0-60.267 25.067t-25.067 60.267v128h85.333v-128h128v-85.333zM853.333 704v128h-128v85.333h128q35.2 0 60.267-25.067t25.067-60.267v-128h-85.333zM576 597.333q-35.2 0-60.267 25.067t-25.067 60.267 25.067 60.267 60.267 25.067 60.267-25.067 25.067-60.267-25.067-60.267-60.267-25.067zM375.467 234.667l42.667 217.6-76.8-29.867v-145.067h-85.333v200.533l168.533 72.533q37.333 16 54.933 20.8t32.533 4.8q22.4 0 41.6-11.733t30.933-30.933l42.667-68.267q11.733-18.133 25.6-33.6t32-28.267l-43.733-75.733q-18.133 11.733-34.667 26.133t-30.4 30.4l-29.867-149.333h-170.667zM640 21.333q-24.533 0-36.8 21.333t-0.533 42.667l170.667 298.667q13.867 20.267 38.4 22.4t36.267-22.4l170.667-298.667q13.867-21.333 0-42.667t-37.333-21.333h-341.333zM810.667 64q8.533 0 14.933 6.4t6.4 14.933-6.4 14.933-14.933 6.4-14.933-6.4-6.4-14.933 6.4-14.933 14.933-6.4zM789.333 149.333h42.667v170.667h-42.667v-170.667z" />
<glyph unicode="&#xe905;" glyph-name="zone_person_idle" d="M873.6 19.2l-310.4 311.467-17.067-83.2h-170.667l42.667 217.6-76.8-29.867v-145.067h-85.333v200.533l102.4 43.733-329.6 329.6 60.8 60.8 844.8-844.8-60.8-60.8zM170.667 76.8q-35.2 0-60.267 25.067t-25.067 60.267v128h85.333v-128h128v-85.333h-128zM853.333 716.8v128h-128v85.333h128q35.2 0 60.267-25.067t25.067-60.267v-128h-85.333zM85.333 716.8v128q0 18.133 6.933 33.6t17.6 27.2l60.8-61.867v-126.933h-85.333zM725.333 76.8v85.333h126.933l60.8-59.733q-10.667-11.733-26.133-18.667t-33.6-6.933h-128zM291.2 844.8l-85.333 85.333h92.8v-85.333h-7.467zM938.667 197.333l-85.333 85.333v7.467h85.333v-92.8zM576 610.133q-35.2 0-60.267 25.067t-25.067 60.267 25.067 60.267 60.267 25.067 60.267-25.067 25.067-60.267-25.067-60.267-60.267-25.067z" />
<glyph unicode="&#xe906;" glyph-name="zone_person_alert" d="M170.667 106.667q-35.2 0-60.267 25.067t-25.067 60.267v128h85.333v-128h128v-85.333h-128zM375.467 277.333l42.667 217.6-76.8-29.867v-145.067h-85.333v200.533l168.533 72.533q37.333 16 54.933 20.8t32.533 4.8q22.4 0 41.6-11.733t30.933-30.933l42.667-68.267 8.533-12.8q4.267-6.4 9.6-11.733-52.267-34.133-86.4-88t-43.733-117.867h-139.733zM576 640q-35.2 0-60.267 25.067t-25.067 60.267 25.067 60.267 60.267 25.067 60.267-25.067 25.067-60.267-25.067-60.267-60.267-25.067zM85.333 746.667v128q0 35.2 25.067 60.267t60.267 25.067h128v-85.333h-128v-128h-85.333zM853.333 746.667v128h-128v85.333h128q35.2 0 60.267-25.067t25.067-60.267v-128h-85.333zM810.667 21.333q-88.533 0-150.933 62.4t-62.4 150.933 62.4 150.933 150.933 62.4 150.933-62.4 62.4-150.933-62.4-150.933-150.933-62.4zM789.333 192h42.667v170.667h-42.667v-170.667zM810.667 106.667q8.533 0 14.933 6.4t6.4 14.933-6.4 14.933-14.933 6.4-14.933-6.4-6.4-14.933 6.4-14.933 14.933-6.4z" />
<glyph unicode="&#xe907;" glyph-name="youtube_searched_for" d="M876.8 87.467l-245.333 245.333q-34.133-27.733-75.733-41.6t-86.4-13.867-85.333 13.333-74.667 37.867l61.867 61.867q21.333-12.8 45.867-20.267t52.267-7.467q80 0 136 56t56 136-56 136-136 56q-73.6 0-127.467-49.6t-62.4-123.2l53.333 53.333 59.733-59.733-157.867-157.867-157.867 157.867 59.733 59.733 57.6-55.467q6.4 109.867 85.333 185.067t189.867 75.2q116.267 0 196.8-80.533t80.533-196.8q0-44.8-13.867-87.467t-41.6-74.667l245.333-245.333-59.733-59.733z" />
<glyph unicode="&#xe908;" glyph-name="youtube_activity" d="M657.067 194.133q-28.8-1.067-54.933-1.6t-46.4-0.533h-43.733q-75.733 0-141.867 2.133-56.533 2.133-111.467 5.867t-79.467 10.133q-27.733 7.467-48 27.733t-27.733 48q-6.4 24.533-10.133 59.733t-5.867 67.2q-2.133 38.4-2.133 77.867t2.133 77.867q2.133 32 5.867 67.2t10.133 59.733q7.467 27.733 27.733 48t48 27.733q24.533 6.4 79.467 10.133t111.467 5.867q66.133 2.133 141.867 2.133t141.867-2.133q56.533-2.133 111.467-5.867t79.467-10.133q27.733-7.467 48-27.733t27.733-48q6.4-24.533 10.133-59.733t5.867-67.2q2.133-38.4 2.133-77.867v-18.133q-20.267 8.533-41.6 13.333t-43.733 4.8q-88.533 0-150.933-62.4t-62.4-150.933q0-22.4 4.267-43.2t12.8-40zM426.667 362.667l221.867 128-221.867 128v-256zM810.667 149.333v85.333h-85.333v85.333h85.333v85.333h85.333v-85.333h85.333v-85.333h-85.333v-85.333h-85.333z" />
<glyph unicode="&#xe909;" glyph-name="your_trips" d="M341.333 192h341.333v85.333h-341.333v-85.333zM298.667 21.333q-35.2 0-60.267 25.067t-25.067 60.267v341.333q0 90.667 47.467 162.133t123.2 106.667v29.867q0 53.333 37.333 90.667t90.667 37.333 90.667-37.333 37.333-90.667v-29.867q75.733-35.2 123.2-106.667t47.467-162.133v-341.333q0-35.2-25.067-60.267t-60.267-25.067h-426.667zM298.667 106.667h426.667v341.333q0 88.533-62.4 150.933t-150.933 62.4-150.933-62.4-62.4-150.933v-341.333zM469.333 742.4q11.733 2.133 21.333 3.2t21.333 1.067 21.333-1.067 21.333-3.2v4.267q0 18.133-12.267 30.4t-30.4 12.267-30.4-12.267-12.267-30.4v-4.267zM298.667 106.667v0zM433.067 341.333l78.933 59.733 78.933-59.733-29.867 97.067 78.933 56.533h-97.067l-30.933 102.4-30.933-102.4h-97.067l78.933-56.533-29.867-97.067z" />
<glyph unicode="&#xe90a;" glyph-name="yard" d="M512 149.333q0 106.667-74.667 181.333t-181.333 74.667q0-106.667 74.667-181.333t181.333-74.667zM512 364.8q27.733 0 46.933 19.2t19.2 46.933v6.4q8.533-6.4 17.6-9.6t20.8-3.2q27.733 0 46.933 19.2t19.2 46.933q0 21.333-10.133 37.333t-28.267 22.4q18.133 6.4 28.267 22.4t10.133 37.333q0 27.733-19.2 46.933t-46.933 19.2q-11.733 0-20.8-3.2t-17.6-9.6v6.4q0 27.733-19.2 46.933t-46.933 19.2-46.933-19.2-19.2-46.933v-6.4q-8.533 6.4-17.6 9.6t-20.8 3.2q-27.733 0-46.933-19.2t-19.2-46.933q0-21.333 10.133-37.333t28.267-22.4q-18.133-6.4-28.267-22.4t-10.133-37.333q0-27.733 19.2-46.933t46.933-19.2q11.733 0 20.8 3.2t17.6 9.6v-6.4q0-27.733 19.2-46.933t46.933-19.2zM512 484.267q-27.733 0-46.933 18.667t-19.2 47.467q0 27.733 19.2 46.933t46.933 19.2 46.933-19.2 19.2-46.933q0-28.8-19.2-47.467t-46.933-18.667zM512 149.333q106.667 0 181.333 74.667t74.667 181.333q-106.667 0-181.333-74.667t-74.667-181.333zM170.667 21.333q-35.2 0-60.267 25.067t-25.067 60.267v682.667q0 35.2 25.067 60.267t60.267 25.067h682.667q35.2 0 60.267-25.067t25.067-60.267v-682.667q0-35.2-25.067-60.267t-60.267-25.067h-682.667zM170.667 106.667h682.667v682.667h-682.667v-682.667zM170.667 106.667v0z" />
<glyph unicode="&#xe90b;" glyph-name="wysiwyg" d="M213.333 64q-35.2 0-60.267 25.067t-25.067 60.267v597.333q0 35.2 25.067 60.267t60.267 25.067h597.333q35.2 0 60.267-25.067t25.067-60.267v-597.333q0-35.2-25.067-60.267t-60.267-25.067h-597.333zM213.333 149.333h597.333v512h-597.333v-512zM298.667 448v85.333h426.667v-85.333h-426.667zM298.667 277.333v85.333h256v-85.333h-256z" />
<glyph unicode="&#xe90c;" glyph-name="wrong_location" d="M512 21.333q-171.733 146.133-256.533 271.467t-84.8 232q0 160 102.933 254.933t238.4 94.933q10.667 0 20.8-0.533t21.867-2.667v-86.4q-10.667 2.133-21.333 3.2t-21.333 1.067q-107.733 0-181.867-74.133t-74.133-190.4q0-75.733 62.933-173.333t193.067-217.067q130.133 119.467 193.067 217.067t62.933 173.333q0 2.133-0.533 4.267t-0.533 4.267h85.333q0-2.133 0.533-4.267t0.533-4.267q0-106.667-84.8-232t-256.533-271.467zM720 616.533l89.6 89.6 89.6-89.6 59.733 59.733-89.6 89.6 89.6 89.6-59.733 59.733-89.6-89.6-89.6 89.6-59.733-59.733 89.6-89.6-89.6-89.6 59.733-59.733zM512 448q35.2 0 60.267 25.067t25.067 60.267-25.067 60.267-60.267 25.067-60.267-25.067-25.067-60.267 25.067-60.267 60.267-25.067z" />
<glyph unicode="&#xe90d;" glyph-name="wrist" d="M469.333 25.6l-209.067 209.067h-217.6v85.333h251.733l147.2-146.133-62.933 124.8h474.667q18.133 0 30.4-12.267t12.267-30.4-12.267-30.4-30.4-12.267h-336l6.4-12.8q18.133-37.333 11.2-77.333t-35.733-68.8l-29.867-28.8zM42.667 576v85.333h196.267l46.933 48q18.133 18.133 41.6 27.733t49.067 9.6h434.133q18.133 0 30.4-12.267t12.267-30.4-12.267-30.4-30.4-12.267h-434.133q-8.533 0-16-3.733t-13.867-9.067l-73.6-72.533h-230.4zM597.333 362.667v85.333h341.333q18.133 0 30.4-12.267t12.267-30.4-12.267-30.4-30.4-12.267h-341.333zM597.333 512v85.333h298.667q18.133 0 30.4-12.267t12.267-30.4-12.267-30.4-30.4-12.267h-298.667z" />
<glyph unicode="&#xe90e;" glyph-name="wrap_text" d="M627.2 76.8l-157.867 157.867 157.867 157.867 59.733-61.867-53.333-53.333h102.4q30.933 0 52.8 21.867t21.867 52.8-21.867 52.8-52.8 21.867h-565.333v85.333h565.333q67.2 0 113.6-46.4t46.4-113.6-46.4-113.6-113.6-46.4h-102.4l53.333-53.333-59.733-61.867zM170.667 192v85.333h213.333v-85.333h-213.333zM170.667 661.333v85.333h682.667v-85.333h-682.667z" />
<glyph unicode="&#xe90f;" glyph-name="wounds_injuries" d="M145.067 21.333l-59.733 59.733 93.867 93.867-93.867 25.6 22.4 82.133 92.8-25.6-24.533 93.867 82.133 22.4 25.6-93.867 146.133 146.133-93.867 25.6 22.4 82.133 92.8-24.533-24.533 92.8 82.133 22.4 25.6-93.867 146.133 146.133-93.867 25.6 22.4 82.133 93.867-24.533-25.6 92.8 82.133 22.4 25.6-93.867 93.867 93.867 59.733-59.733-93.867-93.867 93.867-25.6-22.4-82.133-92.8 25.6 24.533-93.867-82.133-22.4-25.6 93.867-146.133-146.133 93.867-25.6-22.4-82.133-92.8 24.533 24.533-92.8-82.133-22.4-25.6 93.867-146.133-146.133 93.867-25.6-22.4-82.133-93.867 24.533 25.6-92.8-82.133-22.4-25.6 93.867-93.867-93.867z" />
<glyph unicode="&#xe910;" glyph-name="work_update" d="M170.667 149.333v0zM170.667 64q-35.2 0-60.267 25.067t-25.067 60.267v469.333q0 35.2 25.067 60.267t60.267 25.067h170.667v85.333q0 35.2 25.067 60.267t60.267 25.067h170.667q35.2 0 60.267-25.067t25.067-60.267v-85.333h170.667q35.2 0 60.267-25.067t25.067-60.267v-182.4q-19.2 13.867-40.533 24t-44.8 17.6v140.8h-682.667v-469.333h301.867q3.2-22.4 9.6-43.733t16-41.6h-327.467zM426.667 704h170.667v85.333h-170.667v-85.333zM768-21.333q-88.533 0-150.933 62.4t-62.4 150.933 62.4 150.933 150.933 62.4 150.933-62.4 62.4-150.933-62.4-150.933-150.933-62.4zM768 64l128 128-29.867 29.867-76.8-76.8v174.933h-42.667v-174.933l-76.8 76.8-29.867-29.867 128-128z" />
<glyph unicode="&#xe911;" glyph-name="workspaces" d="M256 64q-70.4 0-120.533 50.133t-50.133 120.533 50.133 120.533 120.533 50.133 120.533-50.133 50.133-120.533-50.133-120.533-120.533-50.133zM768 64q-70.4 0-120.533 50.133t-50.133 120.533 50.133 120.533 120.533 50.133 120.533-50.133 50.133-120.533-50.133-120.533-120.533-50.133zM256 149.333q35.2 0 60.267 25.067t25.067 60.267-25.067 60.267-60.267 25.067-60.267-25.067-25.067-60.267 25.067-60.267 60.267-25.067zM768 149.333q35.2 0 60.267 25.067t25.067 60.267-25.067 60.267-60.267 25.067-60.267-25.067-25.067-60.267 25.067-60.267 60.267-25.067zM512 490.667q-70.4 0-120.533 50.133t-50.133 120.533 50.133 120.533 120.533 50.133 120.533-50.133 50.133-120.533-50.133-120.533-120.533-50.133zM512 576q35.2 0 60.267 25.067t25.067 60.267-25.067 60.267-60.267 25.067-60.267-25.067-25.067-60.267 25.067-60.267 60.267-25.067z" />
<glyph unicode="&#xe912;" glyph-name="workspace_premium" d="M412.8 375.467l37.333 121.6-98.133 78.933h121.6l38.4 119.467 38.4-119.467h121.6l-99.2-78.933 37.333-121.6-98.133 75.733-99.2-75.733zM256-21.333v329.6q-40.533 44.8-62.933 102.4t-22.4 122.667q0 142.933 99.2 242.133t242.133 99.2 242.133-99.2 99.2-242.133q0-65.067-22.4-122.667t-62.933-102.4v-329.6l-256 85.333-256-85.333zM512 277.333q106.667 0 181.333 74.667t74.667 181.333-74.667 181.333-181.333 74.667-181.333-74.667-74.667-181.333 74.667-181.333 181.333-74.667zM341.333 105.6l170.667 43.733 170.667-43.733v132.267q-37.333-21.333-80.533-33.6t-90.133-12.267-90.133 12.267-80.533 33.6v-132.267z" />
<glyph unicode="&#xe913;" glyph-name="work_history" d="M170.667 149.333v0zM170.667 64q-35.2 0-60.267 25.067t-25.067 60.267v469.333q0 35.2 25.067 60.267t60.267 25.067h170.667v85.333q0 35.2 25.067 60.267t60.267 25.067h170.667q35.2 0 60.267-25.067t25.067-60.267v-85.333h170.667q35.2 0 60.267-25.067t25.067-60.267v-182.4q-19.2 13.867-40.533 24t-44.8 17.6v140.8h-682.667v-469.333h301.867q3.2-22.4 9.6-43.733t16-41.6h-327.467zM426.667 704h170.667v85.333h-170.667v-85.333zM768-21.333q-88.533 0-150.933 62.4t-62.4 150.933 62.4 150.933 150.933 62.4 150.933-62.4 62.4-150.933-62.4-150.933-150.933-62.4zM789.333 200.533v119.467h-42.667v-136.533l91.733-91.733 29.867 29.867-78.933 78.933z" />
<glyph unicode="&#xe914;" glyph-name="work_alert" d="M768 64q8.533 0 14.933 6.4t6.4 14.933-6.4 14.933-14.933 6.4-14.933-6.4-6.4-14.933 6.4-14.933 14.933-6.4zM746.667 149.333h42.667v170.667h-42.667v-170.667zM170.667 149.333v0zM170.667 64q-35.2 0-60.267 25.067t-25.067 60.267v469.333q0 35.2 25.067 60.267t60.267 25.067h170.667v85.333q0 35.2 25.067 60.267t60.267 25.067h170.667q35.2 0 60.267-25.067t25.067-60.267v-85.333h170.667q35.2 0 60.267-25.067t25.067-60.267v-182.4q-19.2 13.867-40.533 24t-44.8 17.6v140.8h-682.667v-469.333h301.867q3.2-22.4 9.6-43.733t16-41.6h-327.467zM426.667 704h170.667v85.333h-170.667v-85.333zM768-21.333q-88.533 0-150.933 62.4t-62.4 150.933 62.4 150.933 150.933 62.4 150.933-62.4 62.4-150.933-62.4-150.933-150.933-62.4z" />
<glyph unicode="&#xe915;" glyph-name="work" d="M170.667 64q-35.2 0-60.267 25.067t-25.067 60.267v469.333q0 35.2 25.067 60.267t60.267 25.067h170.667v85.333q0 35.2 25.067 60.267t60.267 25.067h170.667q35.2 0 60.267-25.067t25.067-60.267v-85.333h170.667q35.2 0 60.267-25.067t25.067-60.267v-469.333q0-35.2-25.067-60.267t-60.267-25.067h-682.667zM170.667 149.333h682.667v469.333h-682.667v-469.333zM426.667 704h170.667v85.333h-170.667v-85.333zM170.667 149.333v0z" />
<glyph unicode="&#xe916;" glyph-name="woman_2" d="M448 21.333v256h-149.333l130.133 328.533q10.667 25.6 33.067 40.533t50.133 14.933 50.133-14.933 33.067-40.533l130.133-328.533h-149.333v-256h-128zM512 704q-35.2 0-60.267 25.067t-25.067 60.267 25.067 60.267 60.267 25.067 60.267-25.067 25.067-60.267-25.067-60.267-60.267-25.067z" />
<glyph unicode="&#xe917;" glyph-name="woman" d="M426.667 21.333v256h-128l130.133 328.533q10.667 25.6 33.067 40.533t50.133 14.933 50.133-14.933 33.067-40.533l130.133-328.533h-128v-256h-170.667zM512 704q-35.2 0-60.267 25.067t-25.067 60.267 25.067 60.267 60.267 25.067 60.267-25.067 25.067-60.267-25.067-60.267-60.267-25.067z" />
<glyph unicode="&#xe918;" glyph-name="wine_bar" d="M341.333 64v85.333h128v174.933q-91.733 14.933-152.533 85.333t-60.8 166.4v256h512v-256q0-96-60.8-166.4t-152.533-85.333v-174.933h128v-85.333h-341.333zM512 405.333q59.733 0 104.533 36.267t59.733 91.733h-328.533q14.933-55.467 59.733-91.733t104.533-36.267zM341.333 618.667h341.333v128h-341.333v-128z" />
<glyph unicode="&#xe919;" glyph-name="wind_power" d="M426.667-21.333q0 35.2 25.067 60.267t60.267 25.067v221.867q-12.8 5.333-24 12.267t-20.8 15.467l-93.867-59.733q-14.933-8.533-32.533-11.2t-35.733 2.667l-192 54.4q-30.933 8.533-50.667 34.667t-19.733 59.2q0 40.533 28.267 68.8t68.8 28.267h321.067q10.667 11.733 23.467 20.267t27.733 13.867v146.133q0 18.133 6.933 34.133t19.733 27.733l146.133 136.533q24.533 23.467 57.067 26.667t60.267-13.867q34.133-21.333 44.267-60.267t-11.2-73.067l-169.6-280.533q7.467-12.8 11.2-27.733t4.8-30.933l115.2-27.733q17.067-4.267 30.933-14.933t22.4-25.6l97.067-174.933q16-28.8 11.733-60.8t-27.733-55.467q-28.8-28.8-68.8-28.8t-68.8 28.8l-196.267 196.267v-182.4q35.2 0 60.267-25.067t25.067-60.267h-256zM170.667 746.667v85.333h256v-85.333h-256zM597.333 670.933v-146.133q1.067 0 1.6-0.533t1.6-0.533l162.133 269.867q2.133 4.267 1.067 9.067t-5.333 6.933q-3.2 2.133-8 1.067t-6.933-3.2l-146.133-136.533zM42.667 576v85.333h213.333v-85.333h-213.333zM554.667 362.667q18.133 0 30.4 12.267t12.267 30.4-12.267 30.4-30.4 12.267-30.4-12.267-12.267-30.4 12.267-30.4 30.4-12.267zM329.6 326.4l99.2 59.733q-1.067 5.333-1.067 9.6v9.6h-288q-5.333 0-8.533-3.2t-3.2-8.533q0-4.267 2.133-7.467t6.4-4.267l193.067-55.467zM776.533 299.733l-121.6 27.733q-2.133-2.133-4.267-5.333t-4.267-5.333l208-206.933q3.2-3.2 8.533-3.2t8.533 3.2 3.733 6.933-1.6 8l-97.067 174.933zM128 64v85.333h213.333v-85.333h-213.333z" />
<glyph unicode="&#xe91a;" glyph-name="window_sensor" d="M938.667 576q-18.133 0-30.4 12.267t-12.267 30.4v170.667q0 18.133 12.267 30.4t30.4 12.267 30.4-12.267 12.267-30.4v-170.667q0-18.133-12.267-30.4t-30.4-12.267zM128 64v768h682.667v-768h-682.667zM213.333 490.667h213.333v42.667h85.333v-42.667h213.333v256h-512v-256zM213.333 149.333h512v256h-512v-256zM213.333 149.333v0z" />
<glyph unicode="&#xe91b;" glyph-name="window_open" d="M170.667 64v768h682.667v-768h-682.667zM256 490.667h213.333v42.667h85.333v-42.667h213.333v256h-512v-256zM256 149.333v0z" />
<glyph unicode="&#xe91c;" glyph-name="window_closed" d="M170.667 64v768h682.667v-768h-682.667zM256 490.667h213.333v42.667h85.333v-42.667h213.333v256h-512v-256zM256 149.333h512v256h-512v-256zM256 149.333v0z" />
<glyph unicode="&#xe91d;" glyph-name="window" d="M213.333 64q-35.2 0-60.267 25.067t-25.067 60.267v597.333q0 35.2 25.067 60.267t60.267 25.067h597.333q35.2 0 60.267-25.067t25.067-60.267v-597.333q0-35.2-25.067-60.267t-60.267-25.067h-597.333zM554.667 405.333v-256h256v256h-256zM554.667 490.667h256v256h-256v-256zM469.333 490.667v256h-256v-256h256zM469.333 405.333h-256v-256h256v256z" />
<glyph unicode="&#xe91e;" glyph-name="wifi_tethering_off" d="M843.733-5.333l-497.067 497.067q-2.133-10.667-3.733-21.333t-1.6-22.4q0-38.4 15.467-70.933t42.133-57.067l-60.8-60.8q-37.333 35.2-59.733 83.733t-22.4 105.067q0 29.867 6.4 57.6t18.133 52.267l-62.933 62.933q-22.4-38.4-34.667-81.6t-12.267-91.2q0-73.6 28.8-137.6t78.933-110.933l-60.8-60.8q-60.8 58.667-96.533 138.133t-35.733 171.2q0 66.133 18.133 124.8t52.267 109.867l-97.067 97.067 60.8 60.8 785.067-785.067-60.8-60.8zM868.267 213.333l-61.867 61.867q22.4 37.333 34.667 81.067t12.267 91.733q0 142.933-99.2 242.133t-242.133 99.2q-48 0-91.2-12.267t-81.6-34.667l-61.867 61.867q51.2 34.133 110.4 52.267t124.267 18.133q88.533 0 166.4-33.6t135.467-91.2 91.2-135.467 33.6-166.4q0-65.067-18.133-124.267t-52.267-110.4zM743.467 338.133l-66.133 66.133q2.133 10.667 3.733 21.333t1.6 22.4q0 70.4-50.133 120.533t-120.533 50.133q-11.733 0-22.4-1.6t-21.333-3.733l-66.133 66.133q24.533 11.733 52.267 18.133t57.6 6.4q106.667 0 181.333-74.667t74.667-181.333q0-29.867-6.4-57.6t-18.133-52.267z" />
<glyph unicode="&#xe91f;" glyph-name="wifi_tethering_error" d="M217.6 96q-60.8 58.667-96.533 138.133t-35.733 171.2q0 88.533 33.6 166.4t91.2 135.467 135.467 91.2 166.4 33.6q119.467 0 216.533-58.133t153.6-155.2h-103.467q-48 58.667-116.8 93.333t-149.867 34.667q-142.933 0-242.133-99.2t-99.2-242.133q0-73.6 28.8-137.6t78.933-110.933l-60.8-60.8zM338.133 216.533q-37.333 35.2-59.733 83.733t-22.4 105.067q0 106.667 74.667 181.333t181.333 74.667 181.333-74.667 74.667-181.333q0-56.533-22.4-105.6t-59.733-83.2l-60.8 60.8q26.667 24.533 42.133 57.6t15.467 70.4q0 70.4-50.133 120.533t-120.533 50.133-120.533-50.133-50.133-120.533q0-38.4 15.467-70.933t42.133-57.067l-60.8-60.8zM512 320q-35.2 0-60.267 25.067t-25.067 60.267 25.067 60.267 60.267 25.067 60.267-25.067 25.067-60.267-25.067-60.267-60.267-25.067zM896 106.667q-18.133 0-30.4 12.267t-12.267 30.4 12.267 30.4 30.4 12.267 30.4-12.267 12.267-30.4-12.267-30.4-30.4-12.267zM853.333 277.333v256h85.333v-256h-85.333z" />
<glyph unicode="&#xe920;" glyph-name="wifi_tethering" d="M217.6 96q-60.8 58.667-96.533 138.133t-35.733 171.2q0 88.533 33.6 166.4t91.2 135.467 135.467 91.2 166.4 33.6 166.4-33.6 135.467-91.2 91.2-135.467 33.6-166.4q0-91.733-35.733-171.733t-96.533-137.6l-59.733 59.733q49.067 46.933 77.867 111.467t28.8 138.133q0 142.933-99.2 242.133t-242.133 99.2-242.133-99.2-99.2-242.133q0-73.6 28.8-137.6t78.933-110.933l-60.8-60.8zM338.133 216.533q-37.333 35.2-59.733 83.733t-22.4 105.067q0 106.667 74.667 181.333t181.333 74.667 181.333-74.667 74.667-181.333q0-56.533-22.4-105.6t-59.733-83.2l-60.8 60.8q26.667 24.533 42.133 57.6t15.467 70.4q0 70.4-50.133 120.533t-120.533 50.133-120.533-50.133-50.133-120.533q0-38.4 15.467-70.933t42.133-57.067l-60.8-60.8zM512 320q-35.2 0-60.267 25.067t-25.067 60.267 25.067 60.267 60.267 25.067 60.267-25.067 25.067-60.267-25.067-60.267-60.267-25.067z" />
<glyph unicode="&#xe921;" glyph-name="wifi_proxy" d="M746.667 128h53.333v53.333h-53.333v-53.333zM746.667 245.333h53.333v53.333h-53.333v-53.333zM864 128h53.333v53.333h-53.333v-53.333zM682.667 64v298.667h181.333v-117.333h117.333v-181.333h-298.667zM512 64l-512 512q101.333 103.467 234.133 158.4t277.867 54.933 277.867-54.933 234.133-158.4l-103.467-103.467q-22.4 10.667-46.933 16.533t-51.2 6.933l77.867 77.867q-84.267 64-183.467 97.067t-204.8 33.067-204.8-33.067-183.467-97.067l388.267-388.267 37.333 37.333q1.067-26.667 6.933-51.2t16.533-46.933l-60.8-60.8z" />
<glyph unicode="&#xe922;" glyph-name="wifi_protected_setup" d="M668.8 160q18.133 35.2 27.733 74.133t9.6 80.533q0 85.333-37.333 156.267t-101.333 117.867l-98.133-98.133v341.333h341.333l-98.133-98.133q55.467-50.133 88.533-119.467t33.067-150.4q0-97.067-45.333-176t-120-128zM213.333 64l98.133 98.133q-56.533 50.133-89.067 119.467t-32.533 150.4q0 97.067 45.333 176t121.067 128q-18.133-35.2-28.267-74.133t-10.133-80.533q0-85.333 37.867-156.267t100.8-117.867l98.133 98.133v-341.333h-341.333z" />
<glyph unicode="&#xe923;" glyph-name="wifi_password" d="M90.667 486.4l-90.667 90.667q99.2 99.2 229.867 155.733t282.133 56.533 282.133-56.533 229.867-155.733l-90.667-90.667q-81.067 82.133-189.333 128.533t-232 46.4-232-46.4-189.333-128.533zM270.933 305.067l-89.6 90.667q64 64 148.8 100.8t181.867 36.8 181.867-36.8 148.8-100.8l-89.6-90.667q-46.933 46.933-108.8 73.6t-132.267 26.667-132.267-26.667-108.8-73.6zM512 64q-44.8 0-75.733 30.933t-30.933 75.733 30.933 75.733 75.733 30.933 75.733-30.933 30.933-75.733-30.933-75.733-75.733-30.933zM810.667-64q-18.133 0-30.4 12.267t-12.267 30.4v128q0 18.133 12.267 30.4t30.4 12.267v42.667q0 35.2 25.067 60.267t60.267 25.067 60.267-25.067 25.067-60.267v-42.667q18.133 0 30.4-12.267t12.267-30.4v-128q0-18.133-12.267-30.4t-30.4-12.267h-170.667zM853.333 149.333h85.333v42.667q0 18.133-12.267 30.4t-30.4 12.267-30.4-12.267-12.267-30.4v-42.667z" />
<glyph unicode="&#xe924;" glyph-name="wifi_off" d="M842.667-4.267l-401.067 403.2q-50.133-11.733-93.333-35.2t-77.333-58.667l-89.6 91.733q34.133 34.133 73.6 59.733t84.267 44.8l-96 96q-43.733-22.4-81.6-49.6t-72-61.333l-89.6 91.733q34.133 34.133 70.933 61.333t78.4 51.733l-89.6 89.6 59.733 59.733 785.067-785.067-61.867-59.733zM512 64q-44.8 0-75.733 31.467t-30.933 75.2q0 44.8 30.933 75.733t75.733 30.933 75.733-30.933 30.933-75.733q0-43.733-30.933-75.2t-75.733-31.467zM763.733 317.867l-215.467 215.467q86.4-8.533 161.6-43.733t132.8-92.8l-78.933-78.933zM934.4 486.4q-82.133 82.133-190.4 128.533t-232 46.4q-22.4 0-43.2-1.6t-42.133-4.8l-108.8 108.8q46.933 12.8 95.467 19.2t98.667 6.4q151.467 0 282.667-56.533t229.333-154.667l-89.6-91.733z" />
<glyph unicode="&#xe925;" glyph-name="wifi_notification" d="M512 21.333q-35.2 0-60.267 25.067t-25.067 60.267h170.667q0-35.2-25.067-60.267t-60.267-25.067zM170.667 149.333v85.333h85.333v298.667q0 88.533 53.333 157.333t138.667 90.133v29.867q0 26.667 18.667 45.333t45.333 18.667 45.333-18.667 18.667-45.333v-29.867q24.533-5.333 46.4-16t42.133-25.6q-27.733-8.533-54.933-18.667t-52.8-22.933q-11.733 3.2-22.4 4.8t-22.4 1.6q-70.4 0-120.533-50.133t-50.133-120.533v-298.667h512v-85.333h-682.667zM544 516.267l-45.867 44.8q46.933 46.933 109.333 73.6t132.8 26.667 132.267-26.667 108.8-73.6l-45.867-44.8q-37.333 37.333-88 59.2t-108.267 21.867-107.733-21.867-87.467-59.2zM634.667 425.6l-45.867 45.867q28.8 28.8 67.2 45.333t83.2 16.533 83.733-16.533 67.733-45.333l-45.867-45.867q-20.267 21.333-46.933 32.533t-57.6 11.2-58.133-11.733-47.467-32zM740.267 320l-60.8 59.733q11.733 11.733 27.2 18.667t33.6 6.933 33.067-6.933 26.667-18.667l-59.733-59.733z" />
<glyph unicode="&#xe926;" glyph-name="wifi_lock" d="M725.333 64q-18.133 0-30.4 12.267t-12.267 30.4v128q0 18.133 12.267 30.4t30.4 12.267v42.667q0 35.2 25.067 60.267t60.267 25.067 60.267-25.067 25.067-60.267v-42.667q18.133 0 30.4-12.267t12.267-30.4v-128q0-18.133-12.267-30.4t-30.4-12.267h-170.667zM768 277.333h85.333v42.667q0 18.133-12.267 30.4t-30.4 12.267-30.4-12.267-12.267-30.4v-42.667zM512 64l-512 512q101.333 103.467 234.133 158.4t277.867 54.933 277.867-54.933 234.133-158.4l-107.733-107.733q-22.4 10.667-47.467 16t-51.733 6.4l83.2 83.2q-84.267 64-183.467 97.067t-204.8 33.067-204.8-33.067-183.467-97.067l388.267-388.267 42.667 42.667q1.067-26.667 6.4-51.733t16-47.467l-65.067-65.067z" />
<glyph unicode="&#xe927;" glyph-name="wifi_home" d="M170.667 106.667v400l-76.8-58.667-51.2 68.267 469.333 358.4 469.333-358.4-51.2-67.2-76.8 57.6-341.333 260.267-256-195.2v-379.733h213.333q0-22.4 3.2-43.733t9.6-41.6h-311.467zM725.333-21.333h-170.667v64h60.8q-27.733 28.8-44.267 67.2t-16.533 82.133q0 76.8 48.533 135.467t122.133 73.6v-66.133q-46.933-13.867-76.8-52.8t-29.867-90.133q0-30.933 11.2-57.6t31.467-46.933v61.867h64v-170.667zM810.667-17.067v66.133q48 14.933 77.333 53.867t29.333 89.067q0 30.933-11.2 57.6t-31.467 46.933v-61.867h-64v170.667h170.667v-64h-60.8q27.733-28.8 44.267-67.2t16.533-82.133q0-76.8-48.533-135.467t-122.133-73.6z" />
<glyph unicode="&#xe928;" glyph-name="wifi_find" d="M512 64l-512 513.067q99.2 99.2 229.867 155.733t282.133 56.533 282.133-56.533 229.867-155.733l-59.733-60.8q-86.4 86.4-202.667 137.067t-249.6 50.667q-109.867 0-208-34.667t-179.2-96.533l446.933-448-59.733-60.8zM921.6 106.667l-109.867 108.8q-19.2-11.733-40.533-17.6t-45.867-5.867q-72.533 0-121.6 49.067t-49.067 121.6 49.067 121.6 121.6 49.067 121.6-49.067 49.067-121.6q0-24.533-5.867-45.867t-17.6-40.533l108.8-109.867-59.733-59.733zM725.333 277.333q36.267 0 60.8 24.533t24.533 60.8-24.533 60.8-60.8 24.533-60.8-24.533-24.533-60.8 24.533-60.8 60.8-24.533z" />
<glyph unicode="&#xe929;" glyph-name="wifi_channel" d="M128 64q14.933 123.733 36.267 225.6t48.533 174.933 59.733 113.6 68.8 40.533q42.667 0 84.267-60.8t69.333-177.067q13.867 108.8 32 193.067t41.6 141.867 51.733 86.933 62.4 29.333q45.867 0 82.133-54.4t62.933-154.667 43.733-242.133 24.533-316.8h-85.333q-19.2 93.867-59.733 174.933t-68.267 81.067-68.8-81.067-59.2-174.933h-85.333q-8.533 75.733-22.933 150.933t-32 138.133-36.267 109.333-36.8 65.6q-17.067-19.2-36.267-65.067t-36.8-108.8-32-138.133-22.933-152h-85.333zM576 341.333q24.533 30.933 51.2 47.467t55.467 16.533 55.467-16.533 51.2-47.467q-19.2 162.133-48 270.4t-58.667 132.8q-29.867-24.533-58.667-132.8t-48-270.4z" />
<glyph unicode="&#xe92a;" glyph-name="wifi_calling_2" d="M704 491.733q-18.133 0-30.4 12.267t-12.267 30.4 12.267 30.4 30.4 12.267 30.4-12.267 12.267-30.4-12.267-30.4-30.4-12.267zM597.333 596.267l-44.8 44.8q30.933 30.933 69.867 47.467t81.6 16.533 81.6-16.533 69.867-47.467l-44.8-44.8q-21.333 21.333-48.533 33.067t-58.133 11.733-58.133-11.733-48.533-33.067zM507.733 688l-44.8 44.8q48 48 110.4 74.133t130.667 26.133 130.667-26.133 110.4-74.133l-44.8-44.8q-39.467 39.467-90.133 60.267t-106.133 20.8-105.6-21.333-90.667-59.733zM851.2 64q-133.333 0-263.467 58.133t-236.8 164.8-164.8 236.8-58.133 263.467q0 19.2 12.8 32t32 12.8h172.8q14.933 0 26.667-10.133t13.867-24l27.733-149.333q2.133-17.067-1.067-28.8t-11.733-20.267l-103.467-104.533q21.333-39.467 50.667-76.267t64.533-70.933q33.067-33.067 69.333-61.333t76.8-51.733l100.267 100.267q9.6 9.6 25.067 14.4t30.4 2.667l147.2-29.867q14.933-4.267 24.533-15.467t9.6-25.067v-172.8q0-19.2-12.8-32t-32-12.8zM257.067 576l70.4 70.4-18.133 100.267h-94.933q5.333-43.733 14.933-86.4t27.733-84.267zM638.933 194.133q41.6-18.133 84.8-28.8t86.933-13.867v93.867l-100.267 20.267-71.467-71.467z" />
<glyph unicode="&#xe92b;" glyph-name="wifi_calling_1" d="M704 491.733q-18.133 0-30.4 12.267t-12.267 30.4 12.267 30.4 30.4 12.267 30.4-12.267 12.267-30.4-12.267-30.4-30.4-12.267zM597.333 596.267l-44.8 44.8q30.933 30.933 69.867 47.467t81.6 16.533 81.6-16.533 69.867-47.467l-44.8-44.8q-21.333 21.333-48.533 33.067t-58.133 11.733-58.133-11.733-48.533-33.067zM507.733 688l-44.8 44.8q48 48 110.4 74.133t130.667 26.133 130.667-26.133 110.4-74.133l-44.8-44.8q-39.467 39.467-90.133 60.267t-106.133 20.8-105.6-21.333-90.667-59.733zM851.2 64q-133.333 0-263.467 58.133t-236.8 164.8-164.8 236.8-58.133 263.467q0 19.2 12.8 32t32 12.8h172.8q14.933 0 26.667-10.133t13.867-24l27.733-149.333q2.133-17.067-1.067-28.8t-11.733-20.267l-103.467-104.533q21.333-39.467 50.667-76.267t64.533-70.933q33.067-33.067 69.333-61.333t76.8-51.733l100.267 100.267q9.6 9.6 25.067 14.4t30.4 2.667l147.2-29.867q14.933-4.267 24.533-15.467t9.6-25.067v-172.8q0-19.2-12.8-32t-32-12.8zM257.067 576l70.4 70.4-18.133 100.267h-94.933q5.333-43.733 14.933-86.4t27.733-84.267zM638.933 194.133q41.6-18.133 84.8-28.8t86.933-13.867v93.867l-100.267 20.267-71.467-71.467z" />
<glyph unicode="&#xe92c;" glyph-name="wifi_calling" d="M704 512l-235.733 236.8q53.333 40.533 114.133 61.867t121.6 21.333q59.733 0 120-21.867t114.667-63.467l-234.667-234.667zM704 633.6l94.933 93.867q-19.2 9.6-43.2 14.4t-51.733 4.8q-28.8 0-52.8-4.8t-43.2-13.333l96-94.933zM851.2 64q-133.333 0-263.467 58.133t-236.8 164.8-164.8 236.8-58.133 263.467q0 19.2 12.8 32t32 12.8h172.8q14.933 0 26.667-10.133t13.867-24l27.733-149.333q2.133-17.067-1.067-28.8t-11.733-20.267l-103.467-104.533q21.333-39.467 50.667-76.267t64.533-70.933q33.067-33.067 69.333-61.333t76.8-51.733l100.267 100.267q9.6 9.6 25.067 14.4t30.4 2.667l147.2-29.867q14.933-4.267 24.533-15.467t9.6-25.067v-172.8q0-19.2-12.8-32t-32-12.8zM257.067 576l70.4 70.4-18.133 100.267h-94.933q5.333-43.733 14.933-86.4t27.733-84.267zM638.933 194.133q41.6-18.133 84.8-28.8t86.933-13.867v93.867l-100.267 20.267-71.467-71.467z" />
<glyph unicode="&#xe92d;" glyph-name="wifi_add" d="M768 64v128h-128v85.333h128v128h85.333v-128h128v-85.333h-128v-128h-85.333zM512 64l-512 512q101.333 103.467 234.133 158.4t277.867 54.933 277.867-54.933 234.133-158.4l-103.467-103.467q-22.4 10.667-46.933 16.533t-51.2 6.933l77.867 77.867q-84.267 64-183.467 97.067t-204.8 33.067-204.8-33.067-183.467-97.067l388.267-388.267 37.333 37.333q1.067-26.667 6.933-51.2t16.533-46.933l-60.8-60.8z" />
<glyph unicode="&#xe92e;" glyph-name="wifi_2_bar" d="M512 64q-44.8 0-75.733 30.933t-30.933 75.733 30.933 75.733 75.733 30.933 75.733-30.933 30.933-75.733-30.933-75.733-75.733-30.933zM270.933 305.067l-89.6 91.733q62.933 62.933 147.733 99.733t182.933 36.8 182.933-37.333 147.733-101.333l-89.6-89.6q-46.933 46.933-108.8 73.6t-132.267 26.667-132.267-26.667-108.8-73.6z" />
<glyph unicode="&#xe92f;" glyph-name="wifi_1_bar" d="M512 64q-44.8 0-75.733 30.933t-30.933 75.733 30.933 75.733 75.733 30.933 75.733-30.933 30.933-75.733-30.933-75.733-75.733-30.933z" />
<glyph unicode="&#xe930;" glyph-name="wifi" d="M512 64q-44.8 0-75.733 30.933t-30.933 75.733 30.933 75.733 75.733 30.933 75.733-30.933 30.933-75.733-30.933-75.733-75.733-30.933zM270.933 305.067l-89.6 91.733q62.933 62.933 147.733 99.733t182.933 36.8 182.933-37.333 147.733-101.333l-89.6-89.6q-46.933 46.933-108.8 73.6t-132.267 26.667-132.267-26.667-108.8-73.6zM89.6 486.4l-89.6 89.6q98.133 100.267 229.333 156.8t282.667 56.533 282.667-56.533 229.333-156.8l-89.6-89.6q-82.133 82.133-190.4 128.533t-232 46.4-232-46.4-190.4-128.533z" />
<glyph unicode="&#xe931;" glyph-name="width_wide" d="M170.667 106.667q-35.2 0-60.267 25.067t-25.067 60.267v512q0 35.2 25.067 60.267t60.267 25.067h682.667q35.2 0 60.267-25.067t25.067-60.267v-512q0-35.2-25.067-60.267t-60.267-25.067h-682.667zM170.667 192h85.333v512h-85.333v-512zM341.333 192h341.333v512h-341.333v-512zM768 192h85.333v512h-85.333v-512zM341.333 704v0z" />
<glyph unicode="&#xe932;" glyph-name="width_normal" d="M170.667 106.667q-35.2 0-60.267 25.067t-25.067 60.267v512q0 35.2 25.067 60.267t60.267 25.067h682.667q35.2 0 60.267-25.067t25.067-60.267v-512q0-35.2-25.067-60.267t-60.267-25.067h-682.667zM170.667 192h170.667v512h-170.667v-512zM426.667 192h170.667v512h-170.667v-512zM682.667 192h170.667v512h-170.667v-512zM426.667 192v0z" />
<glyph unicode="&#xe933;" glyph-name="width_full" d="M170.667 106.667q-35.2 0-60.267 25.067t-25.067 60.267v512q0 35.2 25.067 60.267t60.267 25.067h682.667q35.2 0 60.267-25.067t25.067-60.267v-512q0-35.2-25.067-60.267t-60.267-25.067h-682.667zM170.667 192h42.667v512h-42.667v-512zM298.667 192h426.667v512h-426.667v-512zM810.667 192h42.667v512h-42.667v-512zM298.667 704v0z" />
<glyph unicode="&#xe934;" glyph-name="width" d="M298.667 277.333l-170.667 170.667 170.667 170.667 60.8-59.733-68.267-68.267h441.6l-67.2 68.267 59.733 59.733 170.667-170.667-170.667-170.667-59.733 59.733 67.2 68.267h-441.6l67.2-68.267-59.733-59.733z" />
<glyph unicode="&#xe935;" glyph-name="widgets" d="M710.4 405.333l-241.067 241.067 241.067 241.067 241.067-241.067-241.067-241.067zM128 490.667v341.333h341.333v-341.333h-341.333zM554.667 64v341.333h341.333v-341.333h-341.333zM128 64v341.333h341.333v-341.333h-341.333zM213.333 576h170.667v170.667h-170.667v-170.667zM711.467 524.8l120.533 120.533-120.533 120.533-120.533-120.533 120.533-120.533zM640 149.333h170.667v170.667h-170.667v-170.667zM213.333 149.333h170.667v170.667h-170.667v-170.667z" />
<glyph unicode="&#xe936;" glyph-name="where_to_vote" d="M467.2 390.4l211.2 211.2-60.8 60.8-150.4-150.4-59.733 59.733-60.8-60.8 120.533-120.533zM512 134.4q130.133 119.467 193.067 217.067t62.933 173.333q0 116.267-74.133 190.4t-181.867 74.133-181.867-74.133-74.133-190.4q0-75.733 62.933-173.333t193.067-217.067zM512 21.333q-171.733 146.133-256.533 271.467t-84.8 232q0 160 102.933 254.933t238.4 94.933 238.4-94.933 102.933-254.933q0-106.667-84.8-232t-256.533-271.467z" />
<glyph unicode="&#xe937;" glyph-name="wheelchair_pickup" d="M277.333 704q-35.2 0-60.267 25.067t-25.067 60.267 25.067 60.267 60.267 25.067 60.267-25.067 25.067-60.267-25.067-60.267-60.267-25.067zM213.333 21.333v298.667h-85.333v256q0 35.2 25.067 60.267t60.267 25.067h128q35.2 0 60.267-25.067t25.067-60.267v-83.2q-67.2-38.4-108.267-106.667t-41.067-151.467q0-60.8 22.4-114.667t62.933-94.4v-4.267h-149.333zM576 21.333q-88.533 0-150.933 62.4t-62.4 150.933q0 71.467 42.133 126.4t107.2 76.267v-92.8q-28.8-17.067-46.4-45.867t-17.6-64q0-53.333 37.333-90.667t90.667-37.333 90.667 37.333 37.333 90.667h85.333q0-88.533-62.4-150.933t-150.933-62.4zM892.8 119.467l-105.6 157.867h-232.533v341.333h85.333v-256h194.133l130.133-196.267-71.467-46.933z" />
<glyph unicode="&#xe938;" glyph-name="whatshot" d="M512 21.333q-70.4 0-136 21.867t-120 63.467l61.867 61.867q44.8-30.933 93.867-46.4t100.267-15.467q141.867 0 241.6 99.733t99.733 241.6-99.733 241.6-241.6 99.733-241.6-99.733-99.733-241.6h-85.333q0 88.533 33.6 166.4t91.2 135.467 135.467 91.2 166.4 33.6 165.867-33.6 135.467-91.733 91.733-135.467 33.6-165.867q0-87.467-33.6-165.333t-91.733-136-135.467-91.733-165.867-33.6zM169.6 195.2l173.867 173.867 128-106.667 211.2 211.2v-110.933h85.333v256h-256v-85.333h110.933l-155.733-155.733-128 106.667-214.4-214.4q11.733-24.533 20.8-40t24-34.667z" />
<glyph unicode="&#xe939;" glyph-name="west" d="M384 149.333l-298.667 298.667 298.667 298.667 59.733-59.733-195.2-196.267h690.133v-85.333h-690.133l196.267-196.267-60.8-59.733z" />
<glyph unicode="&#xe93a;" glyph-name="weight" d="M256 149.333h512l-60.8 426.667h-390.4l-60.8-426.667zM512 661.333q18.133 0 30.4 12.267t12.267 30.4-12.267 30.4-30.4 12.267-30.4-12.267-12.267-30.4 12.267-30.4 30.4-12.267zM632.533 661.333h74.667q32 0 55.467-21.333t28.8-52.267l60.8-426.667q5.333-38.4-19.733-67.733t-64.533-29.333h-512q-39.467 0-64.533 29.333t-19.733 67.733l60.8 426.667q5.333 30.933 28.8 52.267t55.467 21.333h74.667q-3.2 10.667-5.333 20.8t-2.133 21.867q0 53.333 37.333 90.667t90.667 37.333 90.667-37.333 37.333-90.667q0-11.733-2.133-21.867t-5.333-20.8zM256 149.333v0z" />
<glyph unicode="&#xe93b;" glyph-name="weekend" d="M170.667 661.333q0 53.333 37.333 90.667t90.667 37.333h426.667q53.333 0 90.667-37.333t37.333-90.667v-85.333q53.333 0 90.667-37.333t37.333-90.667v-213.333q0-53.333-37.333-90.667t-90.667-37.333h-682.667q-53.333 0-90.667 37.333t-37.333 90.667v213.333q0 53.333 37.333 90.667t90.667 37.333v85.333zM256 661.333v-119.467q19.2-18.133 30.933-41.6t11.733-52.267v-85.333h426.667v85.333q0 28.8 11.733 52.267t30.933 41.6v119.467q0 18.133-12.267 30.4t-30.4 12.267h-426.667q-18.133 0-30.4-12.267t-12.267-30.4zM810.667 277.333h-597.333v170.667q0 8.533-3.2 16.533t-9.067 13.867-13.867 9.067-16.533 3.2q-18.133 0-30.4-12.267t-12.267-30.4v-213.333q0-18.133 12.267-30.4t30.4-12.267h682.667q18.133 0 30.4 12.267t12.267 30.4v213.333q0 18.133-12.267 30.4t-30.4 12.267q-8.533 0-16.533-3.2t-13.867-9.067-9.067-13.867-3.2-16.533v-170.667z" />
<glyph unicode="&#xe93c;" glyph-name="web_traffic" d="M85.333 448v85.333h128v-85.333h-128zM230.4 211.2l-59.733 61.867 89.6 89.6 61.867-59.733-91.733-91.733zM260.267 618.667l-89.6 89.6 59.733 61.867 91.733-91.733-61.867-59.733zM768 106.667l-202.667 202.667-53.333-160-128 426.667 426.667-128-157.867-55.467 200.533-200.533-85.333-85.333zM426.667 704v128h85.333v-128h-85.333zM678.4 618.667l-61.867 59.733 91.733 91.733 59.733-59.733-89.6-91.733z" />
<glyph unicode="&#xe93d;" glyph-name="web_stories" d="M725.333 106.667v682.667q35.2 0 60.267-25.067t25.067-60.267v-512q0-35.2-25.067-60.267t-60.267-25.067zM170.667 21.333q-35.2 0-60.267 25.067t-25.067 60.267v682.667q0 35.2 25.067 60.267t60.267 25.067h384q35.2 0 60.267-25.067t25.067-60.267v-682.667q0-35.2-25.067-60.267t-60.267-25.067h-384zM896 192v512q26.667 0 45.333-18.667t18.667-45.333v-384q0-26.667-18.667-45.333t-45.333-18.667zM170.667 106.667h384v682.667h-384v-682.667zM170.667 789.333v0z" />
<glyph unicode="&#xe93e;" glyph-name="webhook" d="M298.667 64q-88.533 0-150.933 62.4t-62.4 150.933q0 77.867 48.533 136t122.133 73.067v-88.533q-37.333-12.8-61.333-45.867t-24-74.667q0-53.333 37.333-90.667t90.667-37.333 90.667 37.333 37.333 90.667v42.667h250.667q8.533 9.6 20.8 15.467t27.2 5.867q26.667 0 45.333-18.667t18.667-45.333-18.667-45.333-45.333-18.667q-14.933 0-27.2 5.867t-20.8 15.467h-169.6q-14.933-73.6-73.067-122.133t-136-48.533zM725.333 64q-59.733 0-108.267 29.333t-76.267 77.333h114.133q14.933-10.667 33.067-16t37.333-5.333q53.333 0 90.667 37.333t37.333 90.667-37.333 90.667-90.667 37.333q-21.333 0-39.467-5.867t-34.133-17.6l-130.133 216.533q-22.4 4.267-37.333 21.333t-14.933 41.6q0 26.667 18.667 45.333t45.333 18.667 45.333-18.667 18.667-45.333v-9.067q0-3.733-2.133-9.067l92.8-155.733q8.533 2.133 18.133 2.667t19.2 0.533q88.533 0 150.933-62.4t62.4-150.933-62.4-150.933-150.933-62.4zM298.667 213.333q-26.667 0-45.333 18.667t-18.667 45.333q0 23.467 14.933 40.533t36.267 22.4l100.267 166.4q-30.933 28.8-48.533 68.8t-17.6 85.867q0 88.533 62.4 150.933t150.933 62.4 150.933-62.4 62.4-150.933h-85.333q0 53.333-37.333 90.667t-90.667 37.333-90.667-37.333-37.333-90.667q0-45.867 27.733-80.533t70.4-44.267l-144-240q2.133-5.333 2.667-9.6t0.533-9.6q0-26.667-18.667-45.333t-45.333-18.667z" />
<glyph unicode="&#xe93f;" glyph-name="web_asset_off" d="M872.533-34.133l-140.8 140.8h-561.067q-35.2 0-60.267 25.067t-25.067 60.267v512q0 35.2 25.067 60.267t60.267 25.067v-121.6l-142.933 142.933 60.8 60.8 844.8-844.8-60.8-60.8zM170.667 192h475.733l-426.667 426.667h-49.067v-426.667zM929.067 152.533l-75.733 75.733v390.4h-390.4l-170.667 170.667h561.067q35.2 0 60.267-25.067t25.067-60.267v-512q0-10.667-2.133-20.8t-7.467-18.667z" />
<glyph unicode="&#xe940;" glyph-name="web_asset" d="M170.667 106.667q-35.2 0-60.267 25.067t-25.067 60.267v512q0 35.2 25.067 60.267t60.267 25.067h682.667q35.2 0 60.267-25.067t25.067-60.267v-512q0-35.2-25.067-60.267t-60.267-25.067h-682.667zM170.667 192h682.667v426.667h-682.667v-426.667z" />
<glyph unicode="&#xe941;" glyph-name="web" d="M170.667 106.667q-35.2 0-60.267 25.067t-25.067 60.267v512q0 35.2 25.067 60.267t60.267 25.067h682.667q35.2 0 60.267-25.067t25.067-60.267v-512q0-35.2-25.067-60.267t-60.267-25.067h-682.667zM170.667 192h448v149.333h-448v-149.333zM704 192h149.333v384h-149.333v-384zM170.667 426.667h448v149.333h-448v-149.333z" />
<glyph unicode="&#xe942;" glyph-name="weather_snowy" d="M277.333 149.333q-22.4 0-37.867 15.467t-15.467 37.867 15.467 37.867 37.867 15.467 37.867-15.467 15.467-37.867-15.467-37.867-37.867-15.467zM405.333 21.333q-22.4 0-37.867 15.467t-15.467 37.867 15.467 37.867 37.867 15.467 37.867-15.467 15.467-37.867-15.467-37.867-37.867-15.467zM533.333 149.333q-22.4 0-37.867 15.467t-15.467 37.867 15.467 37.867 37.867 15.467 37.867-15.467 15.467-37.867-15.467-37.867-37.867-15.467zM789.333 149.333q-22.4 0-37.867 15.467t-15.467 37.867 15.467 37.867 37.867 15.467 37.867-15.467 15.467-37.867-15.467-37.867-37.867-15.467zM661.333 21.333q-22.4 0-37.867 15.467t-15.467 37.867 15.467 37.867 37.867 15.467 37.867-15.467 15.467-37.867-15.467-37.867-37.867-15.467zM320 320q-97.067 0-165.867 68.8t-68.8 165.867q0 88.533 58.667 154.667t145.067 77.867q34.133 60.8 93.333 95.467t129.6 34.667q96 0 166.933-61.333t85.867-153.067q73.6-6.4 123.733-60.8t50.133-130.133q0-80-56-136t-136-56h-426.667zM320 405.333h426.667q44.8 0 75.733 30.933t30.933 75.733-30.933 75.733-75.733 30.933h-64v42.667q0 70.4-50.133 120.533t-120.533 50.133q-51.2 0-93.333-27.733t-63.467-74.667l-10.667-25.6h-26.667q-60.8-2.133-104-45.333t-43.2-104q0-61.867 43.733-105.6t105.6-43.733z" />
<glyph unicode="&#xe943;" glyph-name="weather_mix" d="M533.333-21.333q-26.667 0-45.333 18.133t-18.667 44.8q0 12.8 4.8 24.533t14.4 20.267l44.8 41.6 44.8-41.6q9.6-8.533 14.4-20.267t4.8-24.533q0-26.667-18.667-44.8t-45.333-18.133zM386.133 42.667l-44.8 44.8 125.867 125.867 44.8-44.8-125.867-125.867zM661.333 106.667l-64 64 64 64 64-64-64-64zM277.333 106.667l-64 64 64 64 64-64-64-64zM320 277.333q-97.067 0-165.867 68.8t-68.8 165.867q0 88.533 58.667 154.667t145.067 77.867q34.133 60.8 93.333 95.467t129.6 34.667q96 0 166.933-61.333t85.867-153.067q73.6-6.4 123.733-60.8t50.133-130.133q0-80-56-136t-136-56h-426.667zM320 362.667h426.667q44.8 0 75.733 30.933t30.933 75.733-30.933 75.733-75.733 30.933h-64v42.667q0 70.4-50.133 120.533t-120.533 50.133q-51.2 0-93.333-27.733t-63.467-74.667l-10.667-25.6h-26.667q-60.8-2.133-104-45.333t-43.2-104q0-61.867 43.733-105.6t105.6-43.733z" />
<glyph unicode="&#xe944;" glyph-name="weather_hail" d="M533.333-21.333l-64 64 64 64 64-64-64-64zM386.133 42.667l-44.8 44.8 125.867 125.867 44.8-44.8-125.867-125.867zM661.333 106.667l-64 64 64 64 64-64-64-64zM277.333 106.667l-64 64 64 64 64-64-64-64zM320 277.333q-97.067 0-165.867 68.8t-68.8 165.867q0 88.533 58.667 154.667t145.067 77.867q34.133 60.8 93.333 95.467t129.6 34.667q96 0 166.933-61.333t85.867-153.067q73.6-6.4 123.733-60.8t50.133-130.133q0-80-56-136t-136-56h-426.667zM320 362.667h426.667q44.8 0 75.733 30.933t30.933 75.733-30.933 75.733-75.733 30.933h-64v42.667q0 70.4-50.133 120.533t-120.533 50.133q-51.2 0-93.333-27.733t-63.467-74.667l-10.667-25.6h-26.667q-60.8-2.133-104-45.333t-43.2-104q0-61.867 43.733-105.6t105.6-43.733z" />
<glyph unicode="&#xe945;" glyph-name="wc" d="M234.667 21.333v320h-64v234.667q0 35.2 25.067 60.267t60.267 25.067h128q35.2 0 60.267-25.067t25.067-60.267v-234.667h-64v-320h-170.667zM320 704q-35.2 0-60.267 25.067t-25.067 60.267 25.067 60.267 60.267 25.067 60.267-25.067 25.067-60.267-25.067-60.267-60.267-25.067zM640 21.333v256h-128l108.8 326.4q8.533 27.733 31.467 42.667t51.733 14.933 51.733-14.933 31.467-42.667l108.8-326.4h-128v-256h-128zM704 704q-35.2 0-60.267 25.067t-25.067 60.267 25.067 60.267 60.267 25.067 60.267-25.067 25.067-60.267-25.067-60.267-60.267-25.067z" />
<glyph unicode="&#xe946;" glyph-name="wb_twilight" d="M782.933 529.067l-59.733 61.867 91.733 89.6 59.733-59.733-91.733-91.733zM85.333 106.667v85.333h853.333v-85.333h-853.333zM469.333 661.333v128h85.333v-128h-85.333zM241.067 531.2l-89.6 91.733 59.733 59.733 91.733-91.733-61.867-59.733zM316.8 362.667h390.4q-24.533 57.6-76.8 92.8t-118.4 35.2-118.4-35.2-76.8-92.8zM213.333 277.333q0 124.8 86.933 211.733t211.733 86.933 211.733-86.933 86.933-211.733h-597.333z" />
<glyph unicode="&#xe947;" glyph-name="wb_sunny" d="M469.333 789.333v128h85.333v-128h-85.333zM469.333-21.333v128h85.333v-128h-85.333zM853.333 405.333v85.333h128v-85.333h-128zM42.667 405.333v85.333h128v-85.333h-128zM797.867 674.133l-59.733 59.733 74.667 76.8 61.867-61.867-76.8-74.667zM211.2 85.333l-61.867 61.867 76.8 74.667 59.733-59.733-74.667-76.8zM812.8 85.333l-74.667 76.8 59.733 59.733 76.8-74.667-61.867-61.867zM226.133 674.133l-76.8 74.667 61.867 61.867 74.667-76.8-59.733-59.733zM512 192q-106.667 0-181.333 74.667t-74.667 181.333 74.667 181.333 181.333 74.667 181.333-74.667 74.667-181.333-74.667-181.333-181.333-74.667zM512 277.333q71.467 0 121.067 49.6t49.6 121.067-49.6 121.067-121.067 49.6-121.067-49.6-49.6-121.067 49.6-121.067 121.067-49.6z" />
<glyph unicode="&#xe948;" glyph-name="wb_shade" d="M832 106.667l-234.667 234.667v106.667l341.333-341.333h-106.667zM597.333 106.667v128l128-128h-128zM170.667 106.667v426.667h-85.333l256 256 256-256h-85.333v-426.667h-341.333zM298.667 362.667h85.333v170.667h-85.333v-170.667z" />
<glyph unicode="&#xe949;" glyph-name="wb_iridescent" d="M213.333 317.867v256h597.333v-256h-597.333zM469.333 746.667v128h85.333v-128h-85.333zM797.867 627.2l-59.733 59.733 76.8 76.8 59.733-59.733-76.8-76.8zM469.333 21.333v128h85.333v-128h-85.333zM814.933 128l-76.8 76.8 59.733 59.733 76.8-76.8-59.733-59.733zM226.133 627.2l-76.8 76.8 59.733 59.733 76.8-76.8-59.733-59.733zM209.067 128l-59.733 59.733 76.8 76.8 59.733-59.733-76.8-76.8zM298.667 403.2h426.667v85.333h-426.667v-85.333zM298.667 403.2v0z" />
<glyph unicode="&#xe94a;" glyph-name="wb_incandescent" d="M469.333 21.333v128h85.333v-128h-85.333zM85.333 405.333v85.333h128v-85.333h-128zM810.667 405.333v85.333h128v-85.333h-128zM768 110.933l-89.6 89.6 59.733 59.733 89.6-89.6-59.733-59.733zM256 110.933l-59.733 59.733 89.6 89.6 59.733-59.733-89.6-89.6zM512 234.667q-88.533 0-150.933 62.4t-62.4 150.933q0 51.2 22.933 95.467t62.4 75.2v213.333h256v-213.333q39.467-30.933 62.4-75.2t22.933-95.467q0-88.533-62.4-150.933t-150.933-62.4zM469.333 657.067q10.667 2.133 21.333 3.2t21.333 1.067 21.333-1.067 21.333-3.2v89.6h-85.333v-89.6zM512 320q53.333 0 90.667 37.333t37.333 90.667-37.333 90.667-90.667 37.333-90.667-37.333-37.333-90.667 37.333-90.667 90.667-37.333z" />
<glyph unicode="&#xe94b;" glyph-name="wb_auto" d="M205.867 320h51.2l27.733 76.8h119.467l27.733-76.8h51.2l-110.933 298.667h-55.467l-110.933-298.667zM299.733 439.467l42.667 123.733h4.267l42.667-123.733h-89.6zM344.533 149.333q-124.8 0-211.733 86.933t-86.933 211.733 86.933 211.733 211.733 86.933q80 0 147.733-39.467t108.267-107.733l-4.267 19.2h51.2l51.2-217.6h2.133l61.867 217.6h46.933l61.867-217.6h4.267l51.2 217.6h51.2l-78.933-298.667h-49.067l-64 224h-2.133l-61.867-224h-49.067l-29.867 123.733q0-122.667-87.467-208.533t-211.2-85.867zM344.533 234.667q88.533 0 150.933 62.4t62.4 150.933-62.4 150.933-150.933 62.4-150.933-62.4-62.4-150.933 62.4-150.933 150.933-62.4z" />
<glyph unicode="&#xe94c;" glyph-name="waving_hand" d="M458.667 469.333l301.867 301.867q12.8 12.8 29.867 12.8t29.867-12.8 12.8-29.867-12.8-29.867l-300.8-301.867-60.8 59.733zM564.267 363.733l270.933 272q12.8 12.8 30.4 12.8t30.4-12.8 12.8-30.4-12.8-30.4l-270.933-270.933-60.8 59.733zM225.067 161.067q-97.067 97.067-97.067 233.6t97.067 233.6l128 128 62.933-62.933q7.467-7.467 12.8-15.467t10.667-16.533l157.867 158.933q12.8 12.8 30.4 12.8t30.4-12.8 12.8-30.4-12.8-30.4l-184.533-184.533-90.667-89.6 20.267-20.267q49.067-49.067 46.933-117.333t-52.267-118.4l-60.8 59.733q24.533 24.533 27.2 58.133t-21.867 58.133l-50.133 49.067q-12.8 12.8-12.8 30.4t12.8 30.4l60.8 59.733q12.8 12.8 12.8 30.4t-12.8 30.4l-68.267-68.267q-72.533-72.533-72.533-173.333t72.533-173.333 173.867-72.533 173.867 72.533l254.933 256q12.8 12.8 30.4 12.8t30.4-12.8 12.8-30.4-12.8-30.4l-256-254.933q-97.067-97.067-233.6-97.067t-233.6 97.067zM725.333-22.4v86.4q70.4 0 120.533 50.133t50.133 120.533h86.4q0-106.667-75.2-181.867t-181.867-75.2zM41.6 661.333q0 106.667 75.2 181.867t181.867 75.2v-86.4q-70.4 0-120.533-50.133t-50.133-120.533h-86.4z" />
<glyph unicode="&#xe94d;" glyph-name="waves" d="M85.333 91.733v83.2q30.933 0 52.8 9.6t44.267 20.8 49.6 20.267 66.667 9.067q40.533 0 66.667-9.067t48.533-20.267 44.8-20.8 53.333-9.6 53.333 9.6 44.8 20.8 49.067 20.267 66.133 9.067q40.533 0 67.2-9.067t49.067-20.267 44.8-20.8 52.267-9.6v-83.2q-40.533 0-67.733 9.6t-49.6 20.8-43.733 20.267-52.267 9.067q-29.867 0-51.733-9.067t-43.733-20.267-49.067-20.8-68.8-9.6-68.8 9.6-49.067 20.8-43.2 20.267-52.267 9.067q-29.867 0-51.733-9.067t-44.267-20.267-49.6-20.8-67.733-9.6zM85.333 281.6v83.2q30.933 0 52.8 9.6t44.267 20.8 49.6 20.267 66.667 9.067q40.533 0 66.667-9.067t48.533-20.267 44.8-20.8 53.333-9.6 53.333 9.6 44.8 20.8 49.067 20.267 66.133 9.067q40.533 0 67.2-9.067t49.067-20.267 44.8-20.8 52.267-9.6v-83.2q-40.533 0-67.733 9.6t-49.6 20.8-43.733 20.267-52.267 9.067-52.8-9.067-43.733-20.267-48.533-20.8-68.267-9.6-68.8 9.6-49.067 20.8-43.2 20.267-52.267 9.067q-29.867 0-51.733-9.067t-44.267-20.267-49.6-20.8-67.733-9.6zM85.333 471.467v83.2q30.933 0 52.8 9.6t44.267 20.8 49.6 20.267 66.667 9.067q40.533 0 66.667-9.067t48.533-20.267 44.8-20.8 53.333-9.6 53.333 9.6 44.8 20.8 49.067 20.267 66.133 9.067q40.533 0 67.2-9.067t49.067-20.267 44.8-20.8 52.267-9.6v-83.2q-40.533 0-67.733 9.6t-49.6 20.8-43.733 20.267-52.267 9.067q-29.867 0-51.733-9.067t-43.733-20.267-49.067-20.8-68.8-9.6-68.8 9.6-49.067 20.8-43.2 20.267-52.267 9.067q-29.867 0-51.733-9.067t-44.267-20.267-49.6-20.8-67.733-9.6zM85.333 661.333v83.2q30.933 0 52.8 9.6t44.267 20.8 49.6 20.267 66.667 9.067q40.533 0 66.667-9.067t48.533-20.267 44.8-20.8 53.333-9.6 53.333 9.6 44.8 20.8 49.067 20.267 66.133 9.067q40.533 0 67.2-9.067t49.067-20.267 44.8-20.8 52.267-9.6v-83.2q-40.533 0-67.733 9.6t-49.6 20.8-43.733 20.267-52.267 9.067q-29.867 0-51.733-9.067t-43.733-20.267-49.067-20.8-68.8-9.6-68.8 9.6-49.067 20.8-43.2 20.267-52.267 9.067q-29.867 0-51.733-9.067t-44.267-20.267-49.6-20.8-67.733-9.6z" />
<glyph unicode="&#xe94e;" glyph-name="water_voc" d="M170.667 371.2q0 106.667 84.8 232t256.533 271.467q125.867-106.667 204.267-202.667t112.533-182.4h-92.8q-29.867 60.8-85.333 128.533t-138.667 143.467q-126.933-116.267-191.467-214.4t-64.533-176q0-114.133 72.533-189.333t183.467-75.2v-85.333q-146.133 0-243.733 100.267t-97.6 249.6zM631.467 1.067l-18.133 40.533q-8.533 18.133-12.267 37.867t-3.733 40q0 23.467 5.333 46.4t16 44.267q8.533 18.133 14.933 36.8t6.4 38.933q0 16-3.733 30.933t-10.133 29.867l-14.933 32 58.667 25.6 18.133-38.4q8.533-18.133 12.267-38.4t3.733-41.6q0-23.467-5.333-45.867t-16-43.733q-8.533-18.133-14.933-37.333t-6.4-39.467q0-14.933 3.2-29.333t9.6-28.267l16-35.2-58.667-25.6zM759.467 1.067l-18.133 40.533q-8.533 18.133-12.267 37.867t-3.733 40q0 23.467 5.333 46.4t16 44.267q8.533 18.133 14.933 36.8t6.4 38.933q0 16-3.733 30.933t-10.133 29.867l-14.933 32 58.667 25.6 18.133-38.4q8.533-19.2 12.267-38.933t3.733-41.067q0-23.467-5.333-45.867t-16-43.733q-8.533-18.133-14.933-37.333t-6.4-39.467q0-14.933 3.2-29.333t9.6-28.267l16-35.2-58.667-25.6zM887.467 1.067l-18.133 40.533q-8.533 18.133-12.267 37.867t-3.733 40q0 23.467 5.333 46.4t16 44.267q8.533 18.133 14.933 36.8t6.4 38.933q0 16-3.733 30.933t-10.133 29.867l-14.933 32 58.667 25.6 18.133-38.4q8.533-18.133 12.267-38.4t3.733-41.6q0-23.467-5.333-46.4t-16-44.267q-8.533-18.133-14.933-36.8t-6.4-38.933q0-14.933 3.2-29.333t9.6-28.267l16-35.2-58.667-25.6z" />
<glyph unicode="&#xe94f;" glyph-name="water_pump" d="M128 234.667h174.933q-18.133 18.133-33.6 39.467t-27.2 45.867h-114.133v-85.333zM512 234.667q88.533 0 150.933 62.4t62.4 150.933-62.4 150.933-150.933 62.4-150.933-62.4-62.4-150.933 62.4-150.933 150.933-62.4zM781.867 576h114.133v85.333h-174.933q18.133-18.133 33.6-39.467t27.2-45.867zM42.667 106.667v341.333h85.333v-42.667h88.533q-2.133 10.667-2.667 20.8t-0.533 21.867q0 124.8 86.933 211.733t211.733 86.933h384v42.667h85.333v-341.333h-85.333v42.667h-88.533q2.133-10.667 2.667-20.8t0.533-21.867q0-124.8-86.933-211.733t-211.733-86.933h-384v-42.667h-85.333zM128 234.667v0zM896 576v0zM512 320q-35.2 0-60.267 25.067t-25.067 60.267q0 24.533 10.133 48.533t38.933 68.8l36.267 53.333 36.267-53.333q28.8-44.8 38.933-68.8t10.133-48.533q0-35.2-25.067-60.267t-60.267-25.067z" />
<glyph unicode="&#xe950;" glyph-name="water_ph" d="M384 23.467q-130.133 14.933-214.4 112t-84.267 235.733q0 106.667 84.8 232t256.533 271.467q171.733-146.133 256.533-271.467t84.8-232v-8.533h-85.333v8.533q0 77.867-64.533 176t-191.467 214.4q-126.933-116.267-191.467-214.4t-64.533-176q0-103.467 59.733-174.933t153.6-86.4v-86.4zM469.333 21.333v256h149.333q25.6 0 44.8-19.2t19.2-44.8v-42.667q0-25.6-19.2-44.8t-44.8-19.2h-85.333v-85.333h-64zM725.333 21.333v256h64v-85.333h85.333v85.333h64v-256h-64v106.667h-85.333v-106.667h-64zM533.333 170.667h85.333v42.667h-85.333v-42.667z" />
<glyph unicode="&#xe951;" glyph-name="water_orp" d="M426.667 874.667q171.733-146.133 256.533-271.467t84.8-232v-8.533h-85.333v8.533q0 77.867-64.533 176t-191.467 214.4q-126.933-116.267-191.467-214.4t-64.533-176q0-29.867 5.333-57.6t16-52.267v-148.267q-50.133 48-78.4 114.133t-28.267 144q0 106.667 84.8 232t256.533 271.467zM320 21.333q-18.133 0-30.4 12.267t-12.267 30.4v170.667q0 18.133 12.267 30.4t30.4 12.267h106.667q18.133 0 30.4-12.267t12.267-30.4v-170.667q0-18.133-12.267-30.4t-30.4-12.267h-106.667zM341.333 85.333h64v128h-64v-128zM512 21.333v256h149.333q26.667 0 45.333-18.667t18.667-45.333v-42.667q0-19.2-10.667-35.2t-27.733-24.533l38.4-89.6h-64l-36.267 85.333h-49.067v-85.333h-64zM768 21.333v256h149.333q26.667 0 45.333-18.667t18.667-45.333v-42.667q0-26.667-18.667-45.333t-45.333-18.667h-85.333v-85.333h-64zM576 170.667h85.333v42.667h-85.333v-42.667zM832 170.667h85.333v42.667h-85.333v-42.667z" />
<glyph unicode="&#xe952;" glyph-name="water_medium" d="M272 349.867l26.667-243.2h426.667l27.733 256h-9.6q-40.533 0-74.133 5.867t-91.2 22.933q-24.533 7.467-51.2 10.667t-53.333 3.2q-54.4 0-105.067-13.867t-96.533-41.6zM261.333 441.6q50.133 24.533 104 36.8t109.333 12.267q32 0 63.467-4.267t62.4-12.8q53.333-14.933 81.6-20.267t60.267-5.333h20.267l37.333 341.333h-576l37.333-347.733zM297.6 21.333q-33.067 0-57.067 21.333t-27.2 54.4l-85.333 777.6h768l-85.333-777.6q-3.2-33.067-27.2-54.4t-57.067-21.333h-428.8zM298.667 106.667v0z" />
<glyph unicode="&#xe953;" glyph-name="water_lux" d="M128 746.667v85.333h128v-85.333h-128zM261.333 519.467l-60.8 59.733 90.667 90.667 60.8-59.733-90.667-90.667zM512 618.667q-88.533 0-150.933 62.4t-62.4 150.933h85.333q0-53.333 37.333-90.667t90.667-37.333 90.667 37.333 37.333 90.667h85.333q0-88.533-62.4-150.933t-150.933-62.4zM469.333 448v128h85.333v-128h-85.333zM762.667 519.467l-89.6 90.667 59.733 59.733 90.667-89.6-60.8-60.8zM768 746.667v85.333h128v-85.333h-128zM85.333 64v85.333q40.533 0 60.267 21.333t82.667 21.333 82.667-21.333 58.133-21.333q40.533 0 60.267 21.333t82.667 21.333q60.8 0 82.667-21.333t60.267-21.333q40.533 0 59.2 21.333t81.6 21.333 82.667-21.333 60.267-21.333v-85.333q-60.8 0-82.667 21.333t-60.267 21.333-58.133-21.333-82.667-21.333q-60.8 0-82.667 21.333t-60.267 21.333q-40.533 0-60.267-21.333t-82.667-21.333-81.6 21.333-59.2 21.333-60.267-21.333-82.667-21.333zM85.333 234.667v85.333q40.533 0 60.267 21.333t82.667 21.333q60.8 0 81.6-21.333t59.2-21.333q40.533 0 60.267 21.333t82.667 21.333q60.8 0 82.133-21.333t58.667-21.333q40.533 0 60.267 21.333t82.667 21.333q60.8 0 82.667-21.333t60.267-21.333v-85.333q-62.933 0-83.733 21.333t-59.2 21.333-58.133-21.333-82.667-21.333q-60.8 0-82.667 21.333t-60.267 21.333q-40.533 0-59.2-21.333t-81.6-21.333-83.733 21.333-59.2 21.333-60.267-21.333-82.667-21.333z" />
<glyph unicode="&#xe954;" glyph-name="water_loss" d="M473.6 277.333q-50.133 0-97.6-12.267t-91.2-35.733l13.867-122.667h426.667l13.867 128q-38.4 0-71.467 6.4t-89.6 22.4q-24.533 7.467-51.2 10.667t-53.333 3.2zM275.2 320q48 21.333 98.133 32t101.333 10.667q32 0 63.467-4.267t62.4-12.8q53.333-14.933 81.6-20.267t60.267-5.333h6.4l51.2 469.333h-576l51.2-469.333zM297.6 21.333q-33.067 0-57.067 21.333t-27.2 54.4l-85.333 777.6h768l-85.333-777.6q-3.2-33.067-27.2-54.4t-57.067-21.333h-428.8zM473.6 106.667v0z" />
<glyph unicode="&#xe955;" glyph-name="water_lock" d="M256 106.667v0zM384 618.667h256v85.333q0 53.333-37.333 90.667t-90.667 37.333-90.667-37.333-37.333-90.667v-85.333zM256 21.333q-35.2 0-60.267 25.067t-25.067 60.267v426.667q0 35.2 25.067 60.267t60.267 25.067h42.667v85.333q0 88.533 62.4 150.933t150.933 62.4 150.933-62.4 62.4-150.933v-85.333h42.667q35.2 0 60.267-25.067t25.067-60.267v-174.933q-11.733 2.133-22.4 3.2t-22.4 1.067q-10.667 0-20.8-1.067t-19.733-3.2v174.933h-512v-426.667h345.6q5.333-24.533 14.933-45.867t24.533-39.467h-385.067zM810.667 21.333q-44.8 0-75.733 30.933t-30.933 75.733q0 21.333 7.467 38.933t20.267 32.533l78.933 88.533 78.933-88.533q12.8-14.933 20.267-32.533t7.467-38.933q0-44.8-30.933-75.733t-75.733-30.933zM512 234.667q35.2 0 60.267 25.067t25.067 60.267-25.067 60.267-60.267 25.067-60.267-25.067-25.067-60.267 25.067-60.267 60.267-25.067z" />
<glyph unicode="&#xe956;" glyph-name="water_heater" d="M396.8 500.267q0-20.267 6.933-39.467t19.733-35.2q2.133 12.8 8.533 25.067t16 20.8l64 61.867 62.933-62.933q9.6-8.533 16-20.267t8.533-24.533q11.733 16 20.8 34.133t9.067 38.4-6.4 38.933-19.2 34.667q-11.733-5.333-24-8.533t-25.067-3.2q-32 0-58.667 18.133t-40.533 48q-12.8-12.8-23.467-27.2t-18.667-30.4-12.267-33.067-4.267-35.2zM512 443.733l-18.133-18.133q-4.267-4.267-5.867-8.533t-1.6-9.6q0-10.667 7.467-17.067t18.133-6.4 18.133 6.4 7.467 17.067q0 5.333-1.6 9.6t-5.867 8.533l-18.133 18.133zM512 746.667v-81.067q0-18.133 12.8-30.4t30.933-12.267q11.733 0 21.333 6.933t17.067 16.533l7.467 10.667q43.733-24.533 67.733-66.667t24-92.267q0-74.667-53.333-126.4t-128-51.733-126.933 52.267-52.267 126.933q0 82.133 52.267 146.133t126.933 101.333zM256 21.333q-35.2 0-60.267 25.067t-25.067 60.267v597.333q0 70.4 50.133 120.533t120.533 50.133h341.333q70.4 0 120.533-50.133t50.133-120.533v-597.333q0-35.2-25.067-60.267t-60.267-25.067h-512zM256 192v-85.333h512v85.333q-32 0-51.2-21.333t-76.8-21.333-75.2 21.333-52.8 21.333-52.8-21.333-75.2-21.333-75.2 21.333-52.8 21.333zM384 234.667q35.2 0 52.8 21.333t75.2 21.333 76.8-21.333 51.2-21.333 51.2 21.333 76.8 21.333v426.667q0 35.2-25.067 60.267t-60.267 25.067h-341.333q-35.2 0-60.267-25.067t-25.067-60.267v-426.667q57.6 0 75.2-21.333t52.8-21.333z" />
<glyph unicode="&#xe957;" glyph-name="water_full" d="M473.6 576q-58.667 0-115.2-16.533t-104.533-49.6l44.8-403.2h426.667l46.933 426.667h-29.867q-40.533 0-73.6 5.867t-90.667 22.933q-24.533 7.467-51.2 10.667t-53.333 3.2zM243.2 602.667q54.4 28.8 112.533 43.733t118.933 14.933q32 0 63.467-4.267t62.4-12.8q53.333-14.933 81.6-20.267t60.267-5.333h39.467l18.133 170.667h-576l19.2-186.667zM297.6 21.333q-33.067 0-57.067 21.333t-27.2 54.4l-85.333 777.6h768l-85.333-777.6q-3.2-33.067-27.2-54.4t-57.067-21.333h-428.8zM473.6 106.667v0z" />
<glyph unicode="&#xe958;" glyph-name="waterfall_chart" d="M128 106.667v298.667h128v-298.667h-128zM298.667 362.667v170.667h128v-170.667h-128zM426.667 576v170.667h128v-170.667h-128zM597.333 661.333v128h128v-128h-128zM768 106.667v682.667h128v-682.667h-128z" />
<glyph unicode="&#xe959;" glyph-name="water_ec" d="M469.333 192h42.667l170.667 256h-128v170.667h-42.667l-170.667-256h128v-170.667zM512 21.333q-146.133 0-243.733 100.267t-97.6 249.6q0 106.667 84.8 232t256.533 271.467q171.733-146.133 256.533-271.467t84.8-232q0-149.333-97.6-249.6t-243.733-100.267zM512 106.667q110.933 0 183.467 75.2t72.533 189.333q0 77.867-64.533 176t-191.467 214.4q-126.933-116.267-191.467-214.4t-64.533-176q0-114.133 72.533-189.333t183.467-75.2z" />
<glyph unicode="&#xe95a;" glyph-name="water_drop" d="M523.733 149.333q12.8 1.067 21.867 10.133t9.067 21.867q0 14.933-9.6 24t-24.533 8q-43.733-3.2-92.8 24t-61.867 98.667q-2.133 11.733-11.2 19.2t-20.8 7.467q-14.933 0-24.533-11.2t-6.4-26.133q18.133-97.067 85.333-138.667t135.467-37.333zM512 21.333q-146.133 0-243.733 100.267t-97.6 249.6q0 106.667 84.8 232t256.533 271.467q171.733-146.133 256.533-271.467t84.8-232q0-149.333-97.6-249.6t-243.733-100.267zM512 106.667q110.933 0 183.467 75.2t72.533 189.333q0 77.867-64.533 176t-191.467 214.4q-126.933-116.267-191.467-214.4t-64.533-176q0-114.133 72.533-189.333t183.467-75.2z" />
<glyph unicode="&#xe95b;" glyph-name="water_do" d="M320 320q18.133 0 30.4 12.267t12.267 30.4-12.267 30.4-30.4 12.267-30.4-12.267-12.267-30.4 12.267-30.4 30.4-12.267zM384 448q18.133 0 30.4 12.267t12.267 30.4-12.267 30.4-30.4 12.267-30.4-12.267-12.267-30.4 12.267-30.4 30.4-12.267zM384 192q18.133 0 30.4 12.267t12.267 30.4-12.267 30.4-30.4 12.267-30.4-12.267-12.267-30.4 12.267-30.4 30.4-12.267zM448 320q18.133 0 30.4 12.267t12.267 30.4-12.267 30.4-30.4 12.267-30.4-12.267-12.267-30.4 12.267-30.4 30.4-12.267zM448 576q18.133 0 30.4 12.267t12.267 30.4-12.267 30.4-30.4 12.267-30.4-12.267-12.267-30.4 12.267-30.4 30.4-12.267zM512 448q18.133 0 30.4 12.267t12.267 30.4-12.267 30.4-30.4 12.267-30.4-12.267-12.267-30.4 12.267-30.4 30.4-12.267zM512 192q18.133 0 30.4 12.267t12.267 30.4-12.267 30.4-30.4 12.267-30.4-12.267-12.267-30.4 12.267-30.4 30.4-12.267zM576 320q18.133 0 30.4 12.267t12.267 30.4-12.267 30.4-30.4 12.267-30.4-12.267-12.267-30.4 12.267-30.4 30.4-12.267zM576 576q18.133 0 30.4 12.267t12.267 30.4-12.267 30.4-30.4 12.267-30.4-12.267-12.267-30.4 12.267-30.4 30.4-12.267zM640 448q18.133 0 30.4 12.267t12.267 30.4-12.267 30.4-30.4 12.267-30.4-12.267-12.267-30.4 12.267-30.4 30.4-12.267zM640 192q18.133 0 30.4 12.267t12.267 30.4-12.267 30.4-30.4 12.267-30.4-12.267-12.267-30.4 12.267-30.4 30.4-12.267zM704 320q18.133 0 30.4 12.267t12.267 30.4-12.267 30.4-30.4 12.267-30.4-12.267-12.267-30.4 12.267-30.4 30.4-12.267zM512 21.333q-146.133 0-243.733 100.267t-97.6 249.6q0 106.667 84.8 232t256.533 271.467q171.733-146.133 256.533-271.467t84.8-232q0-149.333-97.6-249.6t-243.733-100.267zM512 106.667q110.933 0 183.467 75.2t72.533 189.333q0 77.867-64.533 176t-191.467 214.4q-126.933-116.267-191.467-214.4t-64.533-176q0-114.133 72.533-189.333t183.467-75.2z" />
<glyph unicode="&#xe95c;" glyph-name="water_damage" d="M213.333 106.667v341.333h-128l426.667 384 426.667-384h-128v-341.333h-597.333zM298.667 192h426.667v332.8l-213.333 192-213.333-192v-332.8zM512 277.333q35.2 0 60.267 25.067t25.067 60.267q0 28.8-16 61.333t-69.333 109.333q-53.333-76.8-69.333-109.333t-16-61.333q0-35.2 25.067-60.267t60.267-25.067z" />
<glyph unicode="&#xe95d;" glyph-name="water_bottle_large" d="M298.667 106.667h426.667v85.333h-85.333v298.667h-85.333v85.333h170.667v85.333h-426.667v-85.333h85.333v-298.667h85.333v-85.333h-170.667v-85.333zM298.667 21.333q-35.2 0-60.267 25.067t-25.067 60.267v85.333q0 35.2 25.067 60.267t60.267 25.067v213.333q-35.2 0-60.267 25.067t-25.067 60.267v85.333q0 35.2 25.067 60.267t60.267 25.067h128v42.667h-42.667v85.333h256v-85.333h-42.667v-42.667h128q35.2 0 60.267-25.067t25.067-60.267v-85.333q0-35.2-25.067-60.267t-60.267-25.067v-213.333q35.2 0 60.267-25.067t25.067-60.267v-85.333q0-35.2-25.067-60.267t-60.267-25.067h-426.667z" />
<glyph unicode="&#xe95e;" glyph-name="water_bottle" d="M647.467 490.667h-228.267q-5.333-12.8-12.8-25.067t-18.133-20.8l30.933-338.133h228.267l30.933 338.133q-10.667 9.6-18.133 21.333t-12.8 24.533zM407.467 661.333l-11.733-46.933q7.467-8.533 13.333-18.133t10.133-20.267h228.267q4.267 10.667 10.133 20.267t13.333 18.133l-11.733 46.933h-251.733zM419.2 21.333q-33.067 0-57.6 21.867t-27.733 54.933l-33.067 369.067q-1.067 10.667 3.733 19.733t14.4 14.4q8.533 5.333 14.933 12.8t6.4 18.133q0 9.6-4.267 17.6t-12.8 13.333q-10.667 5.333-16 16.533t-2.133 22.933l27.733 112q3.2 14.933 14.933 23.467t26.667 8.533h116.267v42.667h-64v85.333h213.333v-85.333h-64v-42.667h116.267q14.933 0 26.133-8.533t14.4-23.467l28.8-112q3.2-11.733-2.133-22.933t-16-16.533q-8.533-4.267-13.333-11.733t-4.8-17.067q0-11.733 5.867-19.733t15.467-13.333 14.933-14.4 4.267-19.733l-33.067-368q-3.2-33.067-27.733-55.467t-57.6-22.4h-228.267z" />
<glyph unicode="&#xe95f;" glyph-name="water" d="M85.333 192v85.333q40.533 0 60.267 21.333t82.667 21.333 82.667-21.333 58.133-21.333q40.533 0 60.267 21.333t82.667 21.333q60.8 0 82.667-21.333t60.267-21.333q40.533 0 59.2 21.333t81.6 21.333 82.667-21.333 60.267-21.333v-85.333q-60.8 0-82.667 21.333t-60.267 21.333-58.133-21.333-82.667-21.333q-60.8 0-82.667 21.333t-60.267 21.333q-40.533 0-60.267-21.333t-82.667-21.333-81.6 21.333-59.2 21.333-60.267-21.333-82.667-21.333zM85.333 362.667v85.333q40.533 0 60.267 21.333t82.667 21.333q60.8 0 81.6-21.333t59.2-21.333q40.533 0 60.267 21.333t82.667 21.333q60.8 0 82.133-21.333t58.667-21.333q40.533 0 60.267 21.333t82.667 21.333q60.8 0 82.667-21.333t60.267-21.333v-85.333q-62.933 0-83.733 21.333t-59.2 21.333-58.133-21.333-82.667-21.333q-60.8 0-82.667 21.333t-60.267 21.333q-40.533 0-59.2-21.333t-81.6-21.333-83.733 21.333-59.2 21.333-60.267-21.333-82.667-21.333zM85.333 533.333v85.333q40.533 0 60.267 21.333t82.667 21.333q60.8 0 81.6-21.333t59.2-21.333q40.533 0 60.267 21.333t82.667 21.333q60.8 0 82.133-21.333t58.667-21.333q40.533 0 60.267 21.333t82.667 21.333q60.8 0 82.667-21.333t60.267-21.333v-85.333q-62.933 0-83.733 21.333t-59.2 21.333-58.133-21.333-82.667-21.333q-60.8 0-82.667 21.333t-60.267 21.333q-40.533 0-59.2-21.333t-81.6-21.333-83.733 21.333-59.2 21.333-60.267-21.333-82.667-21.333z" />
<glyph unicode="&#xe960;" glyph-name="watch_wake" d="M810.667 234.667v85.333h85.333v-85.333h-85.333zM810.667 405.333v85.333h128v-85.333h-128zM810.667 576v86.4h170.667v-86.4h-170.667zM298.667 21.333l-57.6 194.133q-51.2 40.533-82.133 101.333t-30.933 131.2 30.933 131.2 82.133 101.333l57.6 194.133h256l57.6-194.133q51.2-40.533 82.133-101.333t30.933-131.2-30.933-131.2-82.133-101.333l-57.6-194.133h-256zM426.667 234.667q88.533 0 150.933 62.4t62.4 150.933-62.4 150.933-150.933 62.4-150.933-62.4-62.4-150.933 62.4-150.933 150.933-62.4zM345.6 736q21.333 5.333 41.067 8.533t40 3.2 40-3.2 41.067-8.533l-17.067 53.333h-128l-17.067-53.333zM362.667 106.667h128l17.067 53.333q-21.333-5.333-41.067-8t-40-2.667-40 2.667-41.067 8l17.067-53.333zM345.6 789.333v0zM362.667 106.667v0z" />
<glyph unicode="&#xe961;" glyph-name="watch_screentime" d="M384 362.667v170.667h64v-170.667h-64zM480 362.667v128h64v-128h-64zM576 362.667v85.333h64v-85.333h-64zM384 21.333l-57.6 194.133q-51.2 40.533-82.133 101.333t-30.933 131.2 30.933 131.2 82.133 101.333l57.6 194.133h256l57.6-194.133q51.2-40.533 82.133-101.333t30.933-131.2-30.933-131.2-82.133-101.333l-57.6-194.133h-256zM512 234.667q88.533 0 150.933 62.4t62.4 150.933-62.4 150.933-150.933 62.4-150.933-62.4-62.4-150.933 62.4-150.933 150.933-62.4zM430.933 736q21.333 5.333 41.067 8.533t40 3.2 40-3.2 41.067-8.533l-17.067 53.333h-128l-17.067-53.333zM448 106.667h128l17.067 53.333q-21.333-5.333-41.067-8t-40-2.667-40 2.667-41.067 8l17.067-53.333zM430.933 789.333v0zM448 106.667v0z" />
<glyph unicode="&#xe962;" glyph-name="watch_off" d="M844.8-4.267l-164.267 164.267-40.533-138.667h-256l-57.6 193.067q-51.2 40.533-82.133 101.333t-30.933 132.267q0 38.4 9.6 74.133t27.733 67.733l-190.933 190.933 60.8 60.8 785.067-785.067-60.8-60.8zM512 234.667q21.333 0 40.533 3.733t37.333 11.2l-276.267 276.267q-7.467-18.133-11.2-37.333t-3.733-40.533q0-88.533 62.4-150.933t150.933-62.4zM775.467 307.2l-64 64q7.467 18.133 10.667 36.8t3.2 40q0 88.533-62.4 150.933t-150.933 62.4q-21.333 0-40-3.2t-36.8-10.667l-91.733 91.733 40.533 135.467h256l57.6-193.067q51.2-40.533 82.133-101.333t30.933-132.267q0-38.4-8.533-73.6t-26.667-67.2zM448 106.667h128l17.067 54.4q-16-5.333-38.933-8t-42.133-2.667-42.133 2.667-38.933 8l17.067-54.4zM430.933 734.933q16 5.333 39.467 8.533t41.6 3.2q19.2 0 42.133-3.2t38.933-8.533l-17.067 54.4h-128l-17.067-54.4zM448 106.667v0zM430.933 789.333v0z" />
<glyph unicode="&#xe963;" glyph-name="watch_button_press" d="M810.667 448v384h85.333v-384h-85.333zM298.667 21.333l-57.6 194.133q-51.2 40.533-82.133 101.333t-30.933 131.2 30.933 131.2 82.133 101.333l57.6 194.133h256l57.6-194.133q51.2-40.533 82.133-101.333t30.933-131.2-30.933-131.2-82.133-101.333l-57.6-194.133h-256zM426.667 234.667q88.533 0 150.933 62.4t62.4 150.933-62.4 150.933-150.933 62.4-150.933-62.4-62.4-150.933 62.4-150.933 150.933-62.4zM345.6 736q21.333 5.333 41.067 8.533t40 3.2 40-3.2 41.067-8.533l-17.067 53.333h-128l-17.067-53.333zM362.667 106.667h128l17.067 53.333q-21.333-5.333-41.067-8t-40-2.667-40 2.667-41.067 8l17.067-53.333zM345.6 789.333v0zM362.667 106.667v0z" />
<glyph unicode="&#xe964;" glyph-name="watch" d="M384 21.333l-57.6 194.133q-51.2 40.533-82.133 101.333t-30.933 131.2 30.933 131.2 82.133 101.333l57.6 194.133h256l57.6-194.133q51.2-40.533 82.133-101.333t30.933-131.2-30.933-131.2-82.133-101.333l-57.6-194.133h-256zM512 234.667q88.533 0 150.933 62.4t62.4 150.933-62.4 150.933-150.933 62.4-150.933-62.4-62.4-150.933 62.4-150.933 150.933-62.4zM430.933 736q21.333 5.333 41.067 8.533t40 3.2 40-3.2 41.067-8.533l-17.067 53.333h-128l-17.067-53.333zM448 106.667h128l17.067 53.333q-21.333-5.333-41.067-8t-40-2.667-40 2.667-41.067 8l17.067-53.333zM430.933 789.333v0zM448 106.667v0z" />
<glyph unicode="&#xe965;" glyph-name="wash" d="M746.667 618.667q-41.6 0-74.133 32.533t-32.533 74.133q0 37.333 24.533 82.667t82.133 109.333q57.6-64 82.133-109.333t24.533-82.667q0-41.6-32.533-74.133t-74.133-32.533zM256 21.333q-70.4 0-120.533 50.133t-50.133 120.533v230.4q0 33.067 15.467 61.333t43.2 46.4l352 228.267 21.333-21.333q21.333-21.333 25.067-50.667t-12.267-54.933l-48-76.8h328.533q18.133 0 30.4-12.267t12.267-30.4-12.267-30.4-30.4-12.267h-482.133l82.133 132.267-220.8-142.933q-9.6-5.333-14.4-14.933t-4.8-21.333v-230.4q0-35.2 25.067-60.267t60.267-25.067h512q18.133 0 30.4-12.267t12.267-30.4-12.267-30.4-30.4-12.267h-512zM512 320v85.333h384q18.133 0 30.4-12.267t12.267-30.4-12.267-30.4-30.4-12.267h-384zM512 170.667v85.333h341.333q18.133 0 30.4-12.267t12.267-30.4-12.267-30.4-30.4-12.267h-341.333z" />
<glyph unicode="&#xe966;" glyph-name="warning_off" d="M512 192q-18.133 0-30.4 12.267t-12.267 30.4 12.267 30.4 30.4 12.267 30.4-12.267 12.267-30.4-12.267-30.4-30.4-12.267zM469.333 320v171.733l85.333-85.333v-86.4h-85.333zM931.2 151.467l-232.533 231.467-186.667 321.067-50.133-85.333-61.867 61.867 112 194.133 419.2-723.2zM189.867 149.333h500.267l-316.8 316.8-183.467-316.8zM873.6-34.133l-98.133 98.133h-732.8l268.8 464-282.667 282.667 60.8 60.8 844.8-844.8-60.8-60.8z" />
<glyph unicode="&#xe967;" glyph-name="warning" d="M42.667 64l469.333 810.667 469.333-810.667h-938.667zM189.867 149.333h644.267l-322.133 554.667-322.133-554.667zM512 192q18.133 0 30.4 12.267t12.267 30.4-12.267 30.4-30.4 12.267-30.4-12.267-12.267-30.4 12.267-30.4 30.4-12.267zM469.333 320h85.333v213.333h-85.333v-213.333z" />
<glyph unicode="&#xe968;" glyph-name="warehouse" d="M170.667 149.333h85.333v341.333h512v-341.333h85.333v454.4l-341.333 136.533-341.333-136.533v-454.4zM85.333 64v597.333l426.667 170.667 426.667-170.667v-597.333h-256v341.333h-341.333v-341.333h-256zM384 64v85.333h85.333v-85.333h-85.333zM469.333 192v85.333h85.333v-85.333h-85.333zM554.667 64v85.333h85.333v-85.333h-85.333zM256 490.667v0z" />
<glyph unicode="&#xe969;" glyph-name="ward" d="M128 874.667h85.333q18.133 0 30.4-12.267t12.267-30.4v-810.667q-35.2 0-60.267 25.067t-25.067 60.267v682.667h-42.667q-18.133 0-30.4 12.267t-12.267 30.4 12.267 30.4 30.4 12.267zM384 21.333q-35.2 0-60.267 25.067t-25.067 60.267v682.667q0 35.2 25.067 60.267t60.267 25.067h384q35.2 0 60.267-25.067t25.067-60.267v-682.667q0-35.2-25.067-60.267t-60.267-25.067h-384zM384 510.933q19.2 11.733 40.533 17.067t44.8 5.333h213.333q23.467 0 44.8-5.333t40.533-17.067v278.4h-384v-278.4zM576 576q-35.2 0-60.267 25.067t-25.067 60.267 25.067 60.267 60.267 25.067 60.267-25.067 25.067-60.267-25.067-60.267-60.267-25.067zM384 106.667h384v256q0 35.2-25.067 60.267t-60.267 25.067h-213.333q-35.2 0-60.267-25.067t-25.067-60.267v-256zM533.333 149.333h85.333v85.333h85.333v85.333h-85.333v85.333h-85.333v-85.333h-85.333v-85.333h85.333v-85.333zM384 106.667v0z" />
<glyph unicode="&#xe96a;" glyph-name="wallpaper_slideshow" d="M725.333 618.667q-18.133 0-30.4 12.267t-12.267 30.4 12.267 30.4 30.4 12.267 30.4-12.267 12.267-30.4-12.267-30.4-30.4-12.267zM384 362.667l115.2 149.333 66.133-85.333 98.133 128 147.2-192h-426.667zM170.667 21.333q-35.2 0-60.267 25.067t-25.067 60.267v597.333h85.333v-597.333h597.333v-85.333h-597.333zM256 560v229.333q0 35.2 25.067 60.267t60.267 25.067h213.333v-85.333h-213.333v-229.333h-85.333zM341.333 192q-35.2 0-60.267 25.067t-25.067 60.267v197.333h85.333v-197.333h213.333v-85.333h-213.333zM640 192v85.333h213.333v197.333h85.333v-197.333q0-35.2-25.067-60.267t-60.267-25.067h-213.333zM853.333 560v229.333h-213.333v85.333h213.333q35.2 0 60.267-25.067t25.067-60.267v-229.333h-85.333z" />
<glyph unicode="&#xe96b;" glyph-name="wallpaper" d="M213.333 64q-35.2 0-60.267 25.067t-25.067 60.267v256h85.333v-256h256v-85.333h-256zM554.667 64v85.333h256v256h85.333v-256q0-35.2-25.067-60.267t-60.267-25.067h-256zM256 234.667l128 170.667 96-128 128 170.667 160-213.333h-512zM128 490.667v256q0 35.2 25.067 60.267t60.267 25.067h256v-85.333h-256v-256h-85.333zM810.667 490.667v256h-256v85.333h256q35.2 0 60.267-25.067t25.067-60.267v-256h-85.333zM661.333 533.333q-27.733 0-45.867 18.133t-18.133 45.867 18.133 45.867 45.867 18.133 45.867-18.133 18.133-45.867-18.133-45.867-45.867-18.133z" />
<glyph unicode="&#xe96c;" glyph-name="wall_lamp" d="M128 64v256h85.333v-256h-85.333zM356.267 490.667h396.8l-76.8 256h-243.2l-76.8-256zM356.267 490.667v0zM256 149.333v85.333h213.333q18.133 0 30.4 12.267t12.267 30.4v128h-213.333q-21.333 0-34.133 16.533t-6.4 37.867l102.4 341.333q4.267 13.867 14.933 22.4t25.6 8.533h307.2q14.933 0 25.6-8.533t14.933-22.4l102.4-341.333q6.4-21.333-6.4-37.867t-34.133-16.533h-213.333v-128q0-53.333-37.333-90.667t-90.667-37.333h-213.333z" />
<glyph unicode="&#xe96d;" glyph-name="wallet" d="M256 106.667q-70.4 0-120.533 50.133t-50.133 120.533v341.333q0 70.4 50.133 120.533t120.533 50.133h512q70.4 0 120.533-50.133t50.133-120.533v-341.333q0-70.4-50.133-120.533t-120.533-50.133h-512zM256 618.667h512q23.467 0 44.8-5.333t40.533-17.067v22.4q0 35.2-25.067 60.267t-60.267 25.067h-512q-35.2 0-60.267-25.067t-25.067-60.267v-22.4q19.2 11.733 40.533 17.067t44.8 5.333zM177.067 480l474.667-115.2q9.6-2.133 19.2 0t18.133 8.533l148.267 123.733q-11.733 16-29.867 26.133t-39.467 10.133h-512q-27.733 0-48.533-14.4t-30.4-38.933z" />
<glyph unicode="&#xe96e;" glyph-name="wall_art" d="M170.667 21.333q-35.2 0-60.267 25.067t-25.067 60.267v512q0 35.2 25.067 60.267t60.267 25.067h170.667l170.667 170.667 170.667-170.667h170.667q35.2 0 60.267-25.067t25.067-60.267v-512q0-35.2-25.067-60.267t-60.267-25.067h-682.667zM170.667 106.667h682.667v512h-682.667v-512zM256 192h512l-160 213.333-128-170.667-96 128-128-170.667zM746.667 405.333q26.667 0 45.333 18.667t18.667 45.333-18.667 45.333-45.333 18.667-45.333-18.667-18.667-45.333 18.667-45.333 45.333-18.667zM430.933 704h162.133l-81.067 81.067-81.067-81.067zM170.667 106.667v0z" />
<glyph unicode="&#xe96f;" glyph-name="vrpano" d="M234.667 302.933q69.333 8.533 138.133 12.8t139.2 4.267 139.2-4.267 138.133-12.8l-192 230.4-121.6-145.067-85.333 102.4-155.733-187.733zM128 106.667q-18.133 0-30.4 12.267t-12.267 30.4v597.333q0 18.133 12.267 30.4t30.4 12.267q8.533 0 37.867-10.133t78.4-21.867 115.733-21.867 152-10.133 152 10.133 115.733 21.867 78.4 21.867 37.867 10.133q18.133 0 30.4-12.267t12.267-30.4v-597.333q0-18.133-12.267-30.4t-30.4-12.267q-8.533 0-37.867 10.133t-78.4 21.867-115.733 21.867-152 10.133-152-10.133-115.733-21.867-78.4-21.867-37.867-10.133zM170.667 206.933q83.2 24.533 169.067 36.8t172.267 12.267 172.267-12.267 169.067-36.8v481.067q-83.2-24.533-169.067-36.267t-172.267-11.733-172.267 11.733-169.067 36.267v-481.067z" />
<glyph unicode="&#xe970;" glyph-name="vr180_create2d_off" d="M938.667 141.867l-85.333 85.333v220.8h-220.8l-85.333 85.333h306.133q35.2 0 60.267-25.067t25.067-60.267v-306.133zM667.733 618.667q-27.733 76.8-93.333 123.733t-147.733 46.933q-28.8 0-56.533-6.4t-53.333-18.133l-62.933 62.933q39.467 23.467 83.2 35.2t89.6 11.733q117.333 0 209.6-70.933t121.067-185.067h-89.6zM873.6-34.133l-54.4 55.467h-307.2q-35.2 0-60.267 25.067t-25.067 60.267v307.2l-230.4 230.4q-11.733-25.6-18.667-53.333t-6.933-57.6q0-82.133 46.933-147.733t123.733-93.333v-89.6q-114.133 28.8-185.067 121.067t-70.933 209.6q0 48 12.8 91.733t35.2 82.133l-106.667 106.667 59.733 59.733 848-848-60.8-59.733zM533.333 149.333l76.8 102.4 51.2-70.4 50.133 67.2 99.2-99.2h-277.333zM512 106.667h221.867l-221.867 221.867v-221.867z" />
<glyph unicode="&#xe971;" glyph-name="vr180_create2d" d="M341.333 202.667q-114.133 28.8-185.067 121.067t-70.933 209.6q0 142.933 99.2 242.133t242.133 99.2q117.333 0 209.6-70.933t121.067-185.067h-89.6q-27.733 76.8-93.333 123.733t-147.733 46.933q-106.667 0-181.333-74.667t-74.667-181.333q0-82.133 46.933-147.733t123.733-93.333v-89.6zM512 21.333q-35.2 0-60.267 25.067t-25.067 60.267v341.333q0 35.2 25.067 60.267t60.267 25.067h341.333q35.2 0 60.267-25.067t25.067-60.267v-341.333q0-35.2-25.067-60.267t-60.267-25.067h-341.333zM512 106.667h341.333v341.333h-341.333v-341.333zM533.333 149.333h298.667l-98.133 128-72.533-96-51.2 70.4-76.8-102.4z" />
<glyph unicode="&#xe972;" glyph-name="vpn_lock" d="M512 21.333q-87.467 0-165.333 33.6t-136 91.733-91.733 136-33.6 165.333q0 88.533 33.6 165.867t91.733 135.467 136 91.733 165.333 33.6q34.133 0 65.6-4.8t62.4-14.4v-108.8q0-35.2-25.067-60.267t-60.267-25.067h-85.333v-85.333q0-18.133-12.267-30.4t-30.4-12.267h-85.333v-85.333h256q18.133 0 30.4-12.267t12.267-30.4v-128h42.667q28.8 0 50.667-17.067t30.4-42.667q41.6 46.933 65.6 105.067t24 125.333q0 11.733-1.067 21.333t-3.2 21.333h87.467q2.133-11.733 2.133-21.333v-21.333q0-87.467-33.6-165.333t-91.733-136-135.467-91.733-165.867-33.6zM469.333 108.8v83.2q-35.2 0-60.267 25.067t-25.067 60.267v42.667l-204.8 204.8q-3.2-19.2-5.867-38.4t-2.667-38.4q0-132.267 85.867-227.733t212.8-111.467zM768 576q-18.133 0-30.4 12.267t-12.267 30.4v128q0 18.133 12.267 30.4t30.4 12.267v42.667q0 35.2 25.067 60.267t60.267 25.067 60.267-25.067 25.067-60.267v-42.667q18.133 0 30.4-12.267t12.267-30.4v-128q0-18.133-12.267-30.4t-30.4-12.267h-170.667zM810.667 789.333h85.333v42.667q0 18.133-12.267 30.4t-30.4 12.267-30.4-12.267-12.267-30.4v-42.667z" />
<glyph unicode="&#xe973;" glyph-name="vpn_key_off" d="M843.733-5.333l-325.333 325.333q-34.133-57.6-91.2-92.8t-128.533-35.2q-106.667 0-181.333 74.667t-74.667 181.333q0 70.4 34.133 129.067t91.733 92.8l-109.867 109.867 60.8 60.8 785.067-785.067-60.8-60.8zM725.333 355.2l-50.133 50.133h50.133v-50.133zM896 184.533l-85.333 85.333v135.467h85.333v85.333h-306.133l-85.333 85.333h476.8v-256h-85.333v-135.467zM298.667 277.333q69.333 0 106.133 37.333t52.8 67.2l-224 224q-46.933-19.2-76.267-61.333t-29.333-96.533q0-70.4 50.133-120.533t120.533-50.133zM298.667 362.667q-35.2 0-60.267 25.067t-25.067 60.267 25.067 60.267 60.267 25.067 60.267-25.067 25.067-60.267-25.067-60.267-60.267-25.067z" />
<glyph unicode="&#xe974;" glyph-name="vpn_key_alert" d="M640 192v128h-119.467q-34.133-57.6-92.8-92.8t-129.067-35.2q-106.667 0-181.333 74.667t-74.667 181.333 74.667 181.333 181.333 74.667q70.4 0 129.067-35.2t92.8-92.8h290.133v-85.333h-347.733q-8.533 41.6-51.2 84.8t-113.067 43.2-120.533-50.133-50.133-120.533 50.133-120.533 120.533-50.133 113.067 43.2 51.2 84.8h262.4v-128h85.333v-85.333h-170.667zM298.667 362.667q35.2 0 60.267 25.067t25.067 60.267-25.067 60.267-60.267 25.067-60.267-25.067-25.067-60.267 25.067-60.267 60.267-25.067zM938.667 192q-18.133 0-30.4 12.267t-12.267 30.4 12.267 30.4 30.4 12.267 30.4-12.267 12.267-30.4-12.267-30.4-30.4-12.267zM896 362.667v213.333h85.333v-213.333h-85.333z" />
<glyph unicode="&#xe975;" glyph-name="vpn_key" d="M298.667 192q-106.667 0-181.333 74.667t-74.667 181.333 74.667 181.333 181.333 74.667q70.4 0 129.067-35.2t92.8-92.8h460.8v-256h-85.333v-128h-256v128h-119.467q-34.133-57.6-92.8-92.8t-129.067-35.2zM298.667 277.333q70.4 0 113.067 43.2t51.2 84.8h262.4v-128h85.333v128h85.333v85.333h-433.067q-8.533 41.6-51.2 84.8t-113.067 43.2-120.533-50.133-50.133-120.533 50.133-120.533 120.533-50.133zM298.667 362.667q35.2 0 60.267 25.067t25.067 60.267-25.067 60.267-60.267 25.067-60.267-25.067-25.067-60.267 25.067-60.267 60.267-25.067z" />
<glyph unicode="&#xe976;" glyph-name="voting_chip" d="M341.333 149.333q-124.8 0-211.733 86.933t-86.933 211.733 86.933 211.733 211.733 86.933h341.333q124.8 0 211.733-86.933t86.933-211.733-86.933-211.733-211.733-86.933h-341.333zM341.333 234.667h341.333q88.533 0 150.933 62.4t62.4 150.933-62.4 150.933-150.933 62.4h-341.333q-88.533 0-150.933-62.4t-62.4-150.933 62.4-150.933 150.933-62.4zM352 320h64v96h96v64h-96v96h-64v-96h-96v-64h96v-96zM661.333 320h64v256h-128v-64h64v-192z" />
<glyph unicode="&#xe977;" glyph-name="volunteer_activism" d="M682.667 405.333l-177.067 172.8q-33.067 32-56 70.933t-22.933 84.8q0 58.667 41.067 99.733t99.733 41.067q34.133 0 64-14.4t51.2-38.933q21.333 24.533 51.2 38.933t64 14.4q58.667 0 99.733-41.067t41.067-99.733q0-45.867-22.4-84.8t-55.467-70.933l-178.133-172.8zM682.667 524.8l116.267 114.133q20.267 20.267 37.333 43.2t17.067 51.733q0 23.467-16 39.467t-39.467 16q-14.933 0-28.267-5.867t-22.933-17.6l-64-76.8-64 76.8q-9.6 11.733-22.933 17.6t-28.267 5.867q-23.467 0-39.467-16t-16-39.467q0-28.8 17.067-51.733t37.333-43.2l116.267-114.133zM298.667 170.667l296.533-81.067 253.867 78.933q-5.333 9.6-15.467 16.533t-22.933 6.933h-215.467q-28.8 0-45.867 2.133t-35.2 8.533l-99.2 33.067 23.467 83.2 86.4-28.8q18.133-5.333 42.667-8.533t72.533-4.267q0 11.733-6.933 22.4t-16.533 13.867l-249.6 91.733h-68.267v-234.667zM42.667 21.333v469.333h324.267q7.467 0 14.933-1.6t13.867-3.733l250.667-92.8q35.2-12.8 57.067-44.8t21.867-70.4h85.333q53.333 0 90.667-35.2t37.333-92.8v-42.667l-341.333-106.667-298.667 83.2v-61.867h-256zM128 106.667h85.333v298.667h-85.333v-298.667z" />
<glyph unicode="&#xe978;" glyph-name="volume_up" d="M597.333 75.733v87.467q96 27.733 154.667 106.667t58.667 179.2-58.667 179.2-154.667 106.667v87.467q132.267-29.867 215.467-133.867t83.2-239.467-83.2-239.467-215.467-133.867zM128 320v256h170.667l213.333 213.333v-682.667l-213.333 213.333h-170.667zM597.333 277.333v343.467q50.133-23.467 78.4-70.4t28.267-102.4q0-54.4-28.267-100.8t-78.4-69.867zM426.667 582.4l-91.733-91.733h-121.6v-85.333h121.6l91.733-91.733v268.8z" />
<glyph unicode="&#xe979;" glyph-name="volume_off" d="M844.8-4.267l-129.067 129.067q-26.667-17.067-56.533-29.333t-61.867-19.733v87.467q14.933 5.333 29.333 10.667t27.2 12.8l-141.867 141.867v-221.867l-213.333 213.333h-170.667v256h136.533l-204.8 204.8 59.733 59.733 785.067-785.067-59.733-59.733zM836.267 243.2l-61.867 61.867q18.133 33.067 27.2 69.333t9.067 74.667q0 100.267-58.667 179.2t-154.667 106.667v87.467q132.267-29.867 215.467-133.867t83.2-239.467q0-56.533-15.467-108.8t-44.267-97.067zM693.333 386.133l-96 96v138.667q50.133-23.467 78.4-70.4t28.267-102.4q0-16-2.667-31.467t-8-30.4zM512 567.467l-110.933 110.933 110.933 110.933v-221.867zM426.667 313.6v100.267l-76.8 76.8h-136.533v-85.333h121.6l91.733-91.733z" />
<glyph unicode="&#xe97a;" glyph-name="volume_mute" d="M298.667 320v256h170.667l213.333 213.333v-682.667l-213.333 213.333h-170.667zM384 405.333h121.6l91.733-91.733v268.8l-91.733-91.733h-121.6v-85.333z" />
<glyph unicode="&#xe97b;" glyph-name="volume_down_alt" d="M213.333 320v256h170.667l213.333 213.333v-682.667l-213.333 213.333h-170.667zM682.667 277.333v343.467q48-22.4 77.333-69.333t29.333-103.467-29.333-102.4-77.333-68.267zM512 582.4l-91.733-91.733h-121.6v-85.333h121.6l91.733-91.733v268.8z" />
<glyph unicode="&#xe97c;" glyph-name="volume_down" d="M213.333 320v256h170.667l213.333 213.333v-682.667l-213.333 213.333h-170.667zM682.667 277.333v343.467q48-22.4 77.333-69.333t29.333-103.467-29.333-102.4-77.333-68.267zM512 582.4l-91.733-91.733h-121.6v-85.333h121.6l91.733-91.733v268.8z" />
<glyph unicode="&#xe97d;" glyph-name="volcano" d="M85.333 21.333l170.667 384h128l85.333 213.333h298.667l170.667-597.333h-853.333zM216.533 106.667h609.067l-121.6 426.667h-177.067l-85.333-213.333h-130.133l-94.933-213.333zM554.667 746.667v170.667h85.333v-170.667h-85.333zM747.733 666.667l-59.733 59.733 120.533 120.533 60.8-59.733-121.6-120.533zM446.933 666.667l-120.533 120.533 59.733 60.8 120.533-121.6-59.733-59.733zM825.6 106.667v0z" />
<glyph unicode="&#xe97e;" glyph-name="voice_selection" d="M85.333 21.333v85.333q49.067 0 97.067 6.4t93.867 23.467q-49.067 24.533-77.333 70.933t-28.267 100.8v97.067h170.667v128h144l-139.733 279.467 76.8 38.4 139.733-279.467q21.333-42.667-3.2-83.2t-72.533-40.533h-59.733v-42.667q0-35.2-25.067-60.267t-60.267-25.067h-85.333v-11.733q0-37.333 22.933-65.6t58.133-37.867l12.8-3.2q42.667-10.667 48-53.333t-33.067-64q-64-35.2-134.933-49.067t-144.533-13.867zM695.467 142.933l-60.8 59.733q22.4 22.4 35.2 51.733t12.8 63.467-12.8 63.467-35.2 51.733l60.8 60.8q34.133-34.133 53.333-79.467t19.2-96.533-19.2-96-53.333-78.933zM816 21.333l-60.8 60.8q45.867 45.867 72 106.133t26.133 129.6q0 70.4-26.133 130.133t-72 105.6l60.8 60.8q57.6-57.6 90.133-133.333t32.533-163.2q0-86.4-32.533-162.667t-90.133-133.867z" />
<glyph unicode="&#xe97f;" glyph-name="voice_over_off" d="M548.267 529.067l-206.933 209.067q9.6 3.2 20.267 5.867t22.4 2.667q70.4 0 120.533-50.133t50.133-120.533q0-11.733-1.6-23.467t-4.8-23.467zM42.667 64v119.467q0 35.2 18.133 66.133t50.133 46.933q54.4 27.733 122.667 46.933t150.4 19.2q27.733 0 52.8-2.667t49.6-5.867l-59.733 57.6q-9.6-3.2-20.267-4.8t-22.4-1.6q-70.4 0-120.533 50.133t-50.133 120.533q0 11.733 1.6 22.4t4.8 20.267l-160 162.133 59.733 59.733 778.667-789.333-57.6-61.867-115.2 117.333v-42.667h-682.667zM128 149.333h512v34.133q0 14.933-4.8 20.8t-16.533 15.467q-38.4 19.2-98.667 38.4t-136 19.2-136-19.2-98.667-38.4q-9.6-5.333-15.467-14.933t-5.867-21.333v-34.133zM851.2 279.467l-66.133 66.133q46.933 43.733 73.6 103.467t26.667 126.933-26.667 125.867-73.6 102.4l66.133 68.267q59.733-56.533 94.933-133.333t35.2-163.2-35.2-163.2-94.933-133.333zM714.667 416l-68.267 68.267q19.2 18.133 30.933 41.067t11.733 50.667-11.733 50.667-30.933 41.067l68.267 68.267q34.133-30.933 53.333-72t19.2-88-19.2-88-53.333-72z" />
<glyph unicode="&#xe980;" glyph-name="voicemail" d="M277.333 277.333q-80 0-136 56t-56 136 56 136 136 56 136-56 56-136q0-28.8-8.533-55.467t-23.467-51.2h149.333q-14.933 24.533-23.467 51.2t-8.533 55.467q0 80 56 136t136 56 136-56 56-136-56-136-136-56h-469.333zM277.333 362.667q44.8 0 75.733 30.933t30.933 75.733-30.933 75.733-75.733 30.933-75.733-30.933-30.933-75.733 30.933-75.733 75.733-30.933zM746.667 362.667q44.8 0 75.733 30.933t30.933 75.733-30.933 75.733-75.733 30.933-75.733-30.933-30.933-75.733 30.933-75.733 75.733-30.933z" />
<glyph unicode="&#xe981;" glyph-name="voice_chat" d="M256 490.667h64v85.333h-64v-85.333zM362.667 405.333h64v256h-64v-256zM480 320h64v426.667h-64v-426.667zM597.333 405.333h64v256h-64v-256zM704 490.667h64v85.333h-64v-85.333zM85.333 21.333v768q0 35.2 25.067 60.267t60.267 25.067h682.667q35.2 0 60.267-25.067t25.067-60.267v-512q0-35.2-25.067-60.267t-60.267-25.067h-597.333l-170.667-170.667zM219.733 277.333h633.6v512h-682.667v-560l49.067 48zM170.667 277.333v0z" />
<glyph unicode="&#xe982;" glyph-name="vital_signs" d="M384 106.667q-20.267 0-36.267 11.733t-23.467 29.867l-98.133 257.067h-183.467v85.333h243.2l98.133-260.267 196.267 517.333q7.467 18.133 23.467 29.867t36.267 11.733 36.267-11.733 23.467-29.867l98.133-257.067h183.467v-85.333h-243.2l-98.133 260.267-196.267-517.333q-7.467-18.133-23.467-29.867t-36.267-11.733z" />
<glyph unicode="&#xe983;" glyph-name="visibility_off" d="M686.933 392.533l-61.867 61.867q9.6 50.133-28.8 93.867t-99.2 34.133l-61.867 61.867q18.133 8.533 36.8 12.8t40 4.267q80 0 136-56t56-136q0-21.333-4.267-40t-12.8-36.8zM823.467 258.133l-61.867 59.733q40.533 30.933 72 67.733t53.867 83.733q-53.333 107.733-153.067 171.2t-222.4 63.467q-30.933 0-60.8-4.267t-58.667-12.8l-66.133 66.133q43.733 18.133 89.6 27.2t96 9.067q161.067 0 286.933-89.067t182.4-230.933q-24.533-62.933-64.533-116.8t-93.333-94.4zM844.8-4.267l-179.2 177.067q-37.333-11.733-75.2-17.6t-78.4-5.867q-161.067 0-286.933 89.067t-182.4 230.933q22.4 56.533 56.533 105.067t77.867 86.933l-117.333 119.467 59.733 59.733 785.067-785.067-59.733-59.733zM236.8 601.6q-30.933-27.733-56.533-60.8t-43.733-71.467q53.333-107.733 153.067-171.2t222.4-63.467q21.333 0 41.6 2.667t41.6 5.867l-38.4 40.533q-11.733-3.2-22.4-4.8t-22.4-1.6q-80 0-136 56t-56 136q0 11.733 1.6 22.4t4.8 22.4l-89.6 87.467z" />
<glyph unicode="&#xe984;" glyph-name="visibility_lock" d="M512 354.133q-48 0-81.6 33.6t-33.6 81.6 33.6 81.6 81.6 33.6 81.6-33.6 33.6-81.6-33.6-81.6-81.6-33.6zM512 149.333q-155.733 0-283.733 86.933t-185.6 233.067q57.6 146.133 185.6 233.067t283.733 86.933q150.4 0 274.667-81.067t186.133-217.6h-97.067q-55.467 99.2-152.533 156.267t-211.2 57.067q-120.533 0-221.333-63.467t-154.133-171.2q53.333-107.733 154.133-171.2t221.333-63.467q21.333 0 42.667 2.133t42.667 6.4v-86.4q-21.333-3.2-42.667-5.333t-42.667-2.133zM512 277.333q23.467 0 45.333 5.333t41.067 14.933q5.333 53.333 33.6 96t72 68.267v7.467q0 80-56 136t-136 56-136-56-56-136 56-136 136-56zM725.333 64q-18.133 0-30.4 12.267t-12.267 30.4v128q0 18.133 12.267 30.4t30.4 12.267v42.667q0 35.2 25.067 60.267t60.267 25.067 60.267-25.067 25.067-60.267v-42.667q18.133 0 30.4-12.267t12.267-30.4v-128q0-18.133-12.267-30.4t-30.4-12.267h-170.667zM768 277.333h85.333v42.667q0 18.133-12.267 30.4t-30.4 12.267-30.4-12.267-12.267-30.4v-42.667z" />
<glyph unicode="&#xe985;" glyph-name="visibility" d="M512 277.333q80 0 136 56t56 136-56 136-136 56-136-56-56-136 56-136 136-56zM512 354.133q-48 0-81.6 33.6t-33.6 81.6 33.6 81.6 81.6 33.6 81.6-33.6 33.6-81.6-33.6-81.6-81.6-33.6zM512 149.333q-155.733 0-283.733 86.933t-185.6 233.067q57.6 146.133 185.6 233.067t283.733 86.933 283.733-86.933 185.6-233.067q-57.6-146.133-185.6-233.067t-283.733-86.933zM512 234.667q120.533 0 221.333 63.467t154.133 171.2q-53.333 107.733-154.133 171.2t-221.333 63.467-221.333-63.467-154.133-171.2q53.333-107.733 154.133-171.2t221.333-63.467z" />
<glyph unicode="&#xe986;" glyph-name="villa" d="M128 64v554.667l554.667 213.333v-384h42.667q0 35.2 25.067 60.267t60.267 25.067 60.267-25.067 25.067-60.267v-384h-768zM213.333 149.333h170.667v298.667h213.333v260.267l-384-148.267v-410.667zM469.333 149.333h128v128h85.333v-128h128v213.333h-341.333v-213.333z" />
<glyph unicode="&#xe987;" glyph-name="vignette" d="M170.667 106.667q-35.2 0-60.267 25.067t-25.067 60.267v512q0 35.2 25.067 60.267t60.267 25.067h682.667q35.2 0 60.267-25.067t25.067-60.267v-512q0-35.2-25.067-60.267t-60.267-25.067h-682.667zM170.667 192h682.667v512h-682.667v-512zM170.667 192v0zM512 277.333q104.533 0 180.267 50.667t75.733 120-75.733 120-180.267 50.667-180.267-50.667-75.733-120 75.733-120 180.267-50.667zM512 362.667q-69.333 0-120 25.6t-50.667 59.733 50.667 59.733 120 25.6 120-25.6 50.667-59.733-50.667-59.733-120-25.6z" />
<glyph unicode="&#xe988;" glyph-name="view_week" d="M170.667 192h170.667v512h-170.667v-512zM426.667 192h170.667v512h-170.667v-512zM682.667 192h170.667v512h-170.667v-512zM170.667 106.667q-35.2 0-60.267 25.067t-25.067 60.267v512q0 35.2 25.067 60.267t60.267 25.067h682.667q35.2 0 60.267-25.067t25.067-60.267v-512q0-35.2-25.067-60.267t-60.267-25.067h-682.667z" />
<glyph unicode="&#xe989;" glyph-name="view_timeline" d="M256 234.667h256v85.333h-256v-85.333zM384 405.333h256v85.333h-256v-85.333zM512 576h256v85.333h-256v-85.333zM213.333 64q-35.2 0-60.267 25.067t-25.067 60.267v597.333q0 35.2 25.067 60.267t60.267 25.067h597.333q35.2 0 60.267-25.067t25.067-60.267v-597.333q0-35.2-25.067-60.267t-60.267-25.067h-597.333zM213.333 149.333h597.333v597.333h-597.333v-597.333zM213.333 746.667v0z" />
<glyph unicode="&#xe98a;" glyph-name="view_stream" d="M810.667 234.667v170.667h-597.333v-170.667h597.333zM810.667 490.667v170.667h-597.333v-170.667h597.333zM213.333 149.333q-35.2 0-60.267 25.067t-25.067 60.267v426.667q0 35.2 25.067 60.267t60.267 25.067h597.333q35.2 0 60.267-25.067t25.067-60.267v-426.667q0-35.2-25.067-60.267t-60.267-25.067h-597.333z" />
<glyph unicode="&#xe98b;" glyph-name="view_sidebar" d="M85.333 106.667v682.667h853.333v-682.667h-853.333zM746.667 589.867h106.667v114.133h-106.667v-114.133zM746.667 391.467h106.667v113.067h-106.667v-113.067zM170.667 192h490.667v512h-490.667v-512zM746.667 192h106.667v114.133h-106.667v-114.133z" />
<glyph unicode="&#xe98c;" glyph-name="view_quilt" d="M128 746.667h768v-597.333h-768v597.333zM440.533 661.333v-170.667h370.133v170.667h-370.133zM810.667 405.333h-141.867v-170.667h141.867v170.667zM440.533 405.333v-170.667h142.933v170.667h-142.933zM213.333 234.667h141.867v426.667h-141.867v-426.667z" />
<glyph unicode="&#xe98d;" glyph-name="view_module" d="M129.067 149.333v597.333h766.933v-597.333h-766.933zM668.8 490.667h141.867v170.667h-141.867v-170.667zM441.6 490.667h141.867v170.667h-141.867v-170.667zM214.4 490.667h141.867v170.667h-141.867v-170.667zM214.4 234.667h141.867v170.667h-141.867v-170.667zM441.6 234.667h141.867v170.667h-141.867v-170.667zM668.8 234.667h141.867v170.667h-141.867v-170.667z" />
<glyph unicode="&#xe98e;" glyph-name="view_list" d="M384 192h469.333v114.133h-469.333v-114.133zM170.667 589.867h128v114.133h-128v-114.133zM170.667 390.4h128v114.133h-128v-114.133zM170.667 192h128v114.133h-128v-114.133zM384 390.4h469.333v114.133h-469.333v-114.133zM384 589.867h469.333v114.133h-469.333v-114.133zM170.667 106.667q-35.2 0-60.267 25.067t-25.067 60.267v512q0 35.2 25.067 60.267t60.267 25.067h682.667q35.2 0 60.267-25.067t25.067-60.267v-512q0-35.2-25.067-60.267t-60.267-25.067h-682.667z" />
<glyph unicode="&#xe98f;" glyph-name="view_kanban" d="M298.667 234.667h85.333v426.667h-85.333v-426.667zM640 320h85.333v341.333h-85.333v-341.333zM469.333 448h85.333v213.333h-85.333v-213.333zM213.333 64q-35.2 0-60.267 25.067t-25.067 60.267v597.333q0 35.2 25.067 60.267t60.267 25.067h597.333q35.2 0 60.267-25.067t25.067-60.267v-597.333q0-35.2-25.067-60.267t-60.267-25.067h-597.333zM213.333 149.333h597.333v597.333h-597.333v-597.333zM213.333 746.667v0z" />
<glyph unicode="&#xe990;" glyph-name="view_in_ar_off" d="M798.933 282.667l-427.733 427.733 98.133 56.533q20.267 11.733 42.667 11.733t42.667-11.733l213.333-122.667q20.267-11.733 31.467-31.467t11.2-42.133v-245.333q0-11.733-3.2-22.4t-8.533-20.267zM469.333 129.067l-213.333 122.667q-20.267 11.733-31.467 31.467t-11.2 42.133v245.333q0 22.4 11.2 42.133t31.467 31.467l38.4 21.333 435.2-435.2-174.933-101.333q-20.267-11.733-42.667-11.733t-42.667 11.733zM433.067 648.533l124.8-124.8 122.667 72.533-168.533 97.067-78.933-44.8zM469.333 227.2v196.267l-170.667 99.2v-197.333l170.667-98.133zM725.333 356.267v166.4l-105.6-60.8 105.6-105.6zM554.667 227.2l113.067 65.067-113.067 113.067v-178.133zM872.533-34.133l-55.467 55.467h-91.733v85.333h14.933v-8.533l-584.533 584.533h14.933v-21.333h-85.333v91.733l-57.6 57.6 60.8 60.8 844.8-844.8-60.8-60.8zM938.667 234.667v-91.733l-85.333 85.333v6.4h85.333zM298.667 874.667v-85.333h-6.4l-85.333 85.333h91.733zM298.667 21.333h-128q-35.2 0-60.267 25.067t-25.067 60.267v128h85.333v-128h128v-85.333zM853.333 661.333v128h-128v85.333h128q35.2 0 60.267-25.067t25.067-60.267v-128h-85.333z" />
<glyph unicode="&#xe991;" glyph-name="view_in_ar" d="M469.333 129.067l-213.333 122.667q-20.267 11.733-31.467 30.933t-11.2 42.667v245.333q0 23.467 11.2 42.667t31.467 30.933l213.333 122.667q20.267 11.733 42.667 11.733t42.667-11.733l213.333-122.667q20.267-11.733 31.467-30.933t11.2-42.667v-245.333q0-23.467-11.2-42.667t-31.467-30.933l-213.333-122.667q-20.267-11.733-42.667-11.733t-42.667 11.733zM469.333 227.2v196.267l-170.667 99.2v-197.333l170.667-98.133zM554.667 227.2l170.667 98.133v197.333l-170.667-99.2v-196.267zM85.333 661.333v128q0 35.2 25.067 60.267t60.267 25.067h128v-85.333h-128v-128h-85.333zM298.667 21.333h-128q-35.2 0-60.267 25.067t-25.067 60.267v128h85.333v-128h128v-85.333zM725.333 21.333v85.333h128v128h85.333v-128q0-35.2-25.067-60.267t-60.267-25.067h-128zM853.333 661.333v128h-128v85.333h128q35.2 0 60.267-25.067t25.067-60.267v-128h-85.333zM512 497.067l168.533 99.2-168.533 97.067-168.533-97.067 168.533-99.2z" />
<glyph unicode="&#xe992;" glyph-name="view_headline" d="M170.667 320v85.333h682.667v-85.333h-682.667zM170.667 149.333v85.333h682.667v-85.333h-682.667zM170.667 490.667v85.333h682.667v-85.333h-682.667zM170.667 661.333v85.333h682.667v-85.333h-682.667z" />
<glyph unicode="&#xe993;" glyph-name="view_day" d="M128 106.667v85.333h768v-85.333h-768zM128 704v85.333h768v-85.333h-768zM213.333 277.333q-35.2 0-60.267 25.067t-25.067 60.267v170.667q0 35.2 25.067 60.267t60.267 25.067h597.333q35.2 0 60.267-25.067t25.067-60.267v-170.667q0-35.2-25.067-60.267t-60.267-25.067h-597.333zM213.333 362.667h597.333v170.667h-597.333v-170.667zM213.333 533.333v0z" />
<glyph unicode="&#xe994;" glyph-name="view_cozy" d="M128 512v320h320v-320h-320zM213.333 597.333h149.333v149.333h-149.333v-149.333zM128 64v320h320v-320h-320zM213.333 149.333h149.333v149.333h-149.333v-149.333zM576 512v320h320v-320h-320zM661.333 597.333h149.333v149.333h-149.333v-149.333zM576 64v320h320v-320h-320zM661.333 149.333h149.333v149.333h-149.333v-149.333z" />
<glyph unicode="&#xe995;" glyph-name="view_compact_alt" d="M320 256h170.667v170.667h-170.667v-170.667zM320 469.333h170.667v170.667h-170.667v-170.667zM533.333 256h170.667v170.667h-170.667v-170.667zM533.333 469.333h170.667v170.667h-170.667v-170.667zM170.667 106.667q-35.2 0-60.267 25.067t-25.067 60.267v512q0 35.2 25.067 60.267t60.267 25.067h682.667q35.2 0 60.267-25.067t25.067-60.267v-512q0-35.2-25.067-60.267t-60.267-25.067h-682.667zM170.667 192h682.667v512h-682.667v-512zM170.667 192v0z" />
<glyph unicode="&#xe996;" glyph-name="view_compact" d="M85.333 117.333v661.333h853.333v-661.333h-853.333zM170.667 586.667h106.667v106.667h-106.667v-106.667zM362.667 586.667h106.667v106.667h-106.667v-106.667zM554.667 586.667h106.667v106.667h-106.667v-106.667zM746.667 586.667h106.667v106.667h-106.667v-106.667zM746.667 394.667h106.667v106.667h-106.667v-106.667zM554.667 394.667h106.667v106.667h-106.667v-106.667zM362.667 394.667h106.667v106.667h-106.667v-106.667zM277.333 501.333h-106.667v-106.667h106.667v106.667zM746.667 202.667h106.667v106.667h-106.667v-106.667zM554.667 202.667h106.667v106.667h-106.667v-106.667zM362.667 202.667h106.667v106.667h-106.667v-106.667zM170.667 202.667h106.667v106.667h-106.667v-106.667z" />
<glyph unicode="&#xe997;" glyph-name="view_comfy_alt" d="M85.333 533.333v341.333h341.333v-341.333h-341.333zM170.667 618.667h170.667v170.667h-170.667v-170.667zM85.333 21.333v341.333h341.333v-341.333h-341.333zM170.667 106.667h170.667v170.667h-170.667v-170.667zM597.333 533.333v341.333h341.333v-341.333h-341.333zM682.667 618.667h170.667v170.667h-170.667v-170.667zM597.333 21.333v341.333h341.333v-341.333h-341.333zM682.667 106.667h170.667v170.667h-170.667v-170.667z" />
<glyph unicode="&#xe998;" glyph-name="view_comfy" d="M85.333 106.667v682.667h853.333v-682.667h-853.333zM853.333 490.667v213.333h-682.667v-213.333h682.667zM426.667 192h426.667v213.333h-426.667v-213.333zM170.667 192h170.667v213.333h-170.667v-213.333z" />
<glyph unicode="&#xe999;" glyph-name="view_column_2" d="M640 64q-35.2 0-60.267 25.067t-25.067 60.267v597.333q0 35.2 25.067 60.267t60.267 25.067h170.667q35.2 0 60.267-25.067t25.067-60.267v-597.333q0-35.2-25.067-60.267t-60.267-25.067h-170.667zM640 746.667v-597.333h170.667v597.333h-170.667zM213.333 64q-35.2 0-60.267 25.067t-25.067 60.267v597.333q0 35.2 25.067 60.267t60.267 25.067h170.667q35.2 0 60.267-25.067t25.067-60.267v-597.333q0-35.2-25.067-60.267t-60.267-25.067h-170.667zM213.333 746.667v-597.333h170.667v597.333h-170.667zM810.667 746.667v0zM384 746.667v0z" />
</font>
</defs>
</svg>
